<svg width="50" height="50" viewBox="0 0 50 50" fill="none" xmlns="http://www.w3.org/2000/svg">
<circle cx="25" cy="25" r="25" fill="white"/>
<g clip-path="url(#clip0_49_5291)">
<path d="M25.4033 22.028C29.2751 22.028 32.4137 18.9371 32.4137 15.1243C32.4137 11.3115 29.2751 8.22067 25.4033 8.22067C21.5316 8.22067 18.3929 11.3115 18.3929 15.1243C18.3929 18.9371 21.5316 22.028 25.4033 22.028Z" fill="white"/>
<path d="M25.4033 22.9911C20.9985 22.9911 17.4154 19.462 17.4154 15.1248C17.4154 10.7876 20.9985 7.25806 25.4033 7.25806C29.808 7.25806 33.3912 10.7871 33.3912 15.1243C33.3912 19.4615 29.8075 22.9906 25.4033 22.9906V22.9911ZM25.4033 9.18328C22.0768 9.18328 19.3704 11.8485 19.3704 15.1243C19.3704 18.4002 22.0768 21.0654 25.4033 21.0654C28.7298 21.0654 31.4362 18.4002 31.4362 15.1243C31.4362 11.8485 28.7298 9.18328 25.4033 9.18328Z" fill="url(#paint0_radial_49_5291)"/>
<path d="M36.3351 38.4434C33.3665 40.4348 29.5573 40.9729 25.4032 40.9729C21.2491 40.9729 17.4399 40.4348 14.4713 38.4434C13.5069 37.7963 12.98 36.6836 13.0883 35.5393C13.8477 27.5195 20.0205 23.6839 25.4032 23.6839C30.786 23.6839 36.9587 27.519 37.7182 35.5393C37.8264 36.6836 37.2996 37.7963 36.3351 38.4434Z" fill="white"/>
<path d="M25.4032 41.9355C23.0322 41.9355 21.0331 41.7593 19.2906 41.3964C17.1903 40.9595 15.4338 40.2536 13.9209 39.2387C12.6652 38.3965 11.9735 36.9447 12.1148 35.4499C12.4878 31.5131 14.134 28.2101 16.876 25.8979C19.232 23.9104 22.3404 22.7217 25.4032 22.7217C28.4661 22.7217 31.574 23.9109 33.9305 25.8979C36.6725 28.2101 38.3187 31.5136 38.6916 35.4499C38.833 36.9447 38.1412 38.3965 36.8855 39.2387C35.3727 40.2536 33.6162 40.9595 31.5158 41.3964C29.7734 41.7593 27.7743 41.9355 25.4032 41.9355ZM25.4032 24.6958C20.4396 24.6958 14.7731 28.1168 14.0618 35.6286C13.9861 36.4264 14.354 37.1999 15.0218 37.6477C17.4575 39.2816 20.6591 40.0103 25.4032 40.0103C30.1473 40.0103 33.349 39.2816 35.7847 37.6477C36.4524 37.1999 36.8204 36.4264 36.7447 35.6286C36.0334 28.1173 30.3669 24.6958 25.4032 24.6958Z" fill="url(#paint1_radial_49_5291)"/>
</g>
<defs>
<radialGradient id="paint0_radial_49_5291" cx="0" cy="0" r="1" gradientUnits="userSpaceOnUse" gradientTransform="translate(16.8389 10.5818) scale(38.9068 38.3144)">
<stop stop-color="#21ABDB"/>
<stop offset="1" stop-color="#6327C9"/>
</radialGradient>
<radialGradient id="paint1_radial_49_5291" cx="0" cy="0" r="1" gradientUnits="userSpaceOnUse" gradientTransform="translate(16.8389 9.77534) scale(38.9068 38.3144)">
<stop stop-color="#21ABDB"/>
<stop offset="1" stop-color="#6327C9"/>
</radialGradient>
<clipPath id="clip0_49_5291">
<rect width="26.6129" height="35.4839" fill="white" transform="translate(12.0968 7.25806)"/>
</clipPath>
</defs>
</svg>
