<svg width="44" height="43" viewBox="0 0 44 43" fill="none" xmlns="http://www.w3.org/2000/svg">
<rect x="0.418213" y="0.854492" width="43.5818" height="41.8727" rx="20.9364" fill="white"/>
<path d="M20.2818 31.618C20.2818 32.4465 20.9534 33.118 21.7818 33.118C22.6102 33.118 23.2818 32.4465 23.2818 31.618H20.2818ZM22.8425 9.19375C22.2567 8.60796 21.3069 8.60796 20.7211 9.19375L11.1752 18.7397C10.5894 19.3255 10.5894 20.2752 11.1752 20.861C11.761 21.4468 12.7107 21.4468 13.2965 20.861L21.7818 12.3757L30.2671 20.861C30.8529 21.4468 31.8026 21.4468 32.3884 20.861C32.9742 20.2752 32.9742 19.3255 32.3884 18.7397L22.8425 9.19375ZM23.2818 31.618L23.2818 10.2544H20.2818L20.2818 31.618H23.2818Z" fill="#213C84"/>
</svg>
