<svg width="150" height="149" viewBox="0 0 150 149" fill="none" xmlns="http://www.w3.org/2000/svg">
<g clip-path="url(#clip0_853_22)">
<path d="M74.8867 149C116.032 149 149.387 115.645 149.387 74.5C149.387 33.3548 116.032 0 74.8867 0C33.7415 0 0.386719 33.3548 0.386719 74.5C0.386719 115.645 33.7415 149 74.8867 149Z" fill="#63C5DB"/>
<path d="M104.385 105.758C104.547 105.892 104.714 106.022 104.877 106.157C105.504 106.639 106.45 106.955 105.81 108.069C103.74 111.685 103.962 115.812 103.396 119.725C102.612 125.137 102.756 130.633 102.825 136.101C102.839 137.178 102.783 138.273 103.048 139.322C103.554 141.318 103.628 143.1 101.238 143.941C91.0073 148.058 80.4195 149.701 69.4232 148.564C69.4743 148.508 69.5253 148.457 69.581 148.401C67.4041 148.448 65.2921 147.696 63.1058 147.895C60.4786 147.245 57.7399 147.092 55.1916 146.085C54.5975 145.175 55.252 144.289 55.252 143.388C55.2705 131.417 56.0968 119.395 52.7454 107.665C52.5458 105.985 54.0173 106.087 54.941 105.609C56.0828 105.767 56.5517 106.714 57.104 107.531C60.9613 113.291 64.127 119.483 67.9889 125.234C71.4285 130.354 74.3852 135.766 77.6716 140.974C78.5907 142.437 79.1291 142.423 80.0018 140.979C81.1158 139.132 82.3644 137.368 83.5805 135.585C84.2443 134.615 84.9777 133.729 86.2263 133.492C88.5983 133.19 90.9841 133.339 93.3607 133.357C94.9807 133.367 95.7976 132.828 95.7233 131.097C95.6537 129.412 95.7233 127.718 95.7048 126.028C95.7048 125.796 95.779 125.494 95.6584 125.35C93.2029 122.445 95.3938 119.864 96.1922 117.186C96.4521 115.524 97.5104 114.289 98.4759 113.017C99.8591 111.188 101.071 109.248 102.398 107.382C102.895 106.681 103.206 105.665 104.385 105.758Z" fill="#075384"/>
<path d="M44.72 127.639C44.6967 127.421 44.72 127.202 44.7849 126.994C45.6854 124.027 46.21 120.964 47.013 117.97C47.635 115.649 48.8882 113.686 49.8166 111.546C50.239 110.571 50.0951 109.438 50.8703 108.566C51.4412 107.921 51.91 107.238 52.8709 107.201C54.7508 109.462 54.6672 112.335 55.1407 114.985C56.7606 124.074 55.9344 133.269 56.134 142.423C56.1619 143.769 55.9948 144.994 55.1964 146.094C50.7496 145.003 46.4885 143.425 42.5291 141.095C42.5801 140.784 42.6312 140.478 42.6822 140.167C42.8911 138.259 43.4017 136.388 43.3599 134.453C43.5224 133.733 43.216 133.483 43.541 131.77" fill="#0A4879"/>
<path d="M101.238 143.941C101.154 143.815 101.075 143.69 100.992 143.565C103.345 142.659 102.324 140.974 102.231 139.248C101.953 134.109 101.925 128.957 102.273 123.8C102.579 119.279 103.345 114.832 103.879 110.353C103.986 109.457 104.088 108.719 104.923 108.218C106.056 107.531 105.378 106.834 104.877 106.161C106.488 106.342 107.123 107.628 107.82 108.807C109.918 112.344 110.837 116.345 112.22 120.166C113.664 124.821 114.304 129.644 115.209 134.411C115.363 135.214 115.506 136.091 115.098 136.904C110.79 139.87 106.218 142.307 101.238 143.945V143.941Z" fill="#0A4879"/>
<path d="M63.106 147.895C65.5754 147.083 67.9427 148.601 70.5281 147.937C70.2032 148.67 69.7483 148.438 69.4234 148.564C67.2789 148.703 65.1947 148.271 63.1013 147.895H63.106Z" fill="#224465"/>
<path d="M48.8046 66.3909C49.0321 65.9453 49.2642 65.4997 49.4916 65.0541C49.241 64.1118 49.7655 63.3738 50.1183 62.5847C52.5041 60.301 53.5764 60.6027 55.1406 63.9911C55.3774 64.6085 55.3681 65.2583 55.3866 65.9035C55.3913 66.9015 55.3866 67.8995 55.3913 68.8975C55.3913 69.2363 55.3913 69.5798 55.3913 69.9187C55.4006 70.5453 55.3588 71.1812 55.4423 71.78C55.4795 70.471 55.5166 69.1899 56.1479 68.0202C57.3594 64.8963 59.6013 62.8586 62.6835 61.6192C65.1714 60.6212 67.5666 59.3958 70.0128 58.2911C71.7349 57.8919 73.4198 58.2911 74.9702 58.8759C77.9873 60.0178 80.828 59.1684 83.7199 58.5278C85.0613 58.2307 86.3935 57.7666 87.7535 58.421C90.158 59.679 92.7573 60.482 95.2639 61.4846C100.49 63.578 103.15 67.4307 101.883 73.3767C101.818 73.6738 101.818 73.9848 101.804 74.2912C101.79 74.6022 101.693 74.2262 101.739 74.5233C101.753 74.6207 101.665 74.6672 101.772 74.4815C101.874 74.2912 101.823 74.0312 101.827 73.7992C101.897 73.2746 102.087 72.7733 102.055 72.2349C102.041 71.5711 102.324 70.9445 102.31 70.2807C102.338 69.7005 102.361 69.1203 102.505 68.554C102.946 67.0454 102.616 65.3558 103.568 63.9679C104.696 62.8261 105.996 62.1901 107.643 62.594C109.37 64.3486 109.189 66.5023 108.762 68.6143C108.177 71.5293 107.189 74.3329 105.773 76.9648C103.624 77.9303 102.551 79.7824 101.451 81.7644C98.5874 86.926 94.9111 91.4656 90.2554 95.1605C88.0645 97.3931 85.4048 98.9435 82.6847 100.406C78.9389 102.416 75.6664 100.916 72.5008 98.9528C71.1314 98.1033 69.9385 96.98 68.5553 96.1352C68.0354 95.7035 67.5016 95.2904 66.9028 94.9701C62.3214 91.0107 58.5198 86.4247 55.9808 80.8964C55.2613 79.3367 54.6161 78.0463 52.648 77.9257C51.7243 77.87 50.9538 77.2294 50.3689 76.4728C50.0254 75.8926 49.9929 75.1917 49.668 74.6022C49.3709 73.3953 49.0785 72.1931 48.7814 70.9862C47.932 69.4545 48.0156 67.9273 48.8093 66.4048L48.8046 66.3909Z" fill="#F7BA8D"/>
<path d="M102.607 104.212C103.781 104.569 104.269 105.966 103.573 106.978C101.312 110.265 98.6848 113.31 96.9442 116.939C94.2844 122.793 89.9166 127.569 86.7462 133.102C86.5095 133.511 86.1196 133.78 85.7993 134.109C83.562 135.975 82.5223 138.719 80.7816 140.951L80.2803 141.596C79.4958 142.604 77.9455 142.52 77.2724 141.434C69.8224 129.417 62.5024 117.608 55.1824 105.804C54.9039 105.516 54.7971 105.173 54.8296 104.778C55.0431 103.845 55.7626 103.395 56.5517 103.056C58.6033 102.174 60.7061 101.431 62.7902 100.633C63.8439 100.229 64.7537 100.313 65.3571 101.413C67.0513 106.988 69.3629 112.316 71.8277 117.58C73.4801 121.228 75.6339 124.496 78.8924 126.929C79.5655 127.639 80.1596 127.495 80.7027 126.859C80.7677 126.78 80.8419 126.706 80.9209 126.636C84.1654 123.925 86.296 120.421 88.0367 116.633C88.3152 116.099 88.6494 115.607 89.095 115.208C89.2157 115.097 89.3317 114.981 89.4199 114.846C91.7222 111.444 92.9987 107.605 94.0895 103.687C94.3866 102.61 94.3494 101.288 95.9137 101.093C97.478 101.046 98.8241 101.696 100.152 102.392C100.407 102.527 100.634 102.722 100.797 102.963C100.885 103.093 100.964 103.232 101.043 103.376C101.414 103.868 102.013 104.04 102.607 104.221V104.212Z" fill="#06426D"/>
<path d="M110.391 34.7806C114.109 33.8059 117.841 32.8868 121.555 31.8935C122.153 31.8145 122.757 31.796 123.351 31.6753C123.713 31.7031 124.061 31.7542 124.279 32.0977C124.368 37.4078 124.349 37.3336 119.164 38.7168C117.317 39.2088 115.363 39.3574 113.636 40.2857C111.273 40.8102 109.003 41.8314 106.506 41.6875C105.68 39.7659 105.782 37.7838 106.088 35.7832" fill="#09385D"/>
<path d="M106.697 51.5048C106.673 49.0262 106.65 46.5521 106.627 44.0734C106.646 43.9249 106.669 43.7717 106.692 43.6232" fill="#E35A04"/>
<path d="M35.7288 39.1996C34.4616 39 33.1898 38.8514 31.9597 38.4615C31.0407 38.1645 30.1216 37.8674 29.2025 37.5703C29.0865 37.3893 29.0076 37.1943 28.9705 36.9854C29.0169 35.3283 29.0679 33.6712 29.1886 32.0188L29.1468 31.9631C29.6249 31.7031 30.1495 31.8285 30.6554 31.7728C35.1022 32.3716 39.303 34.0101 43.708 34.8363C54.7925 36.9158 65.6449 40.0768 76.7247 42.2074C77.4071 42.3374 78.094 42.4673 78.6882 42.8712C79.1059 44.8254 78.2611 46.8631 79.0688 48.794C79.041 49.054 78.911 49.2489 78.6835 49.3789C75.2486 48.6409 71.8323 47.8564 68.3557 47.2855C63.1244 46.4314 57.8282 45.8001 52.7919 43.9991C51.7986 43.6463 51.3297 44.0688 51.3112 45.0807C51.2833 47.2391 51.2648 49.3928 51.3251 51.5512C51.3622 52.8973 52.4345 52.9809 53.335 53.3987C54.7832 54.0717 56.8441 53.6075 57.5961 55.6128C55.1453 56.7871 52.9776 55.5339 50.7542 54.7958C50.5453 54.6473 50.3596 54.4755 50.1972 54.2806C50.1972 51.0592 50.2064 47.8332 50.1832 44.6118C50.1786 43.7949 50.406 42.8944 49.6077 42.2631C48.2615 41.6922 46.7948 41.6504 45.393 41.3255L45.1841 41.3348L44.9845 41.2837" fill="#0A4879"/>
<path d="M85.804 134.105C87.0294 130.043 90.0279 127.077 92.3581 123.716C93.9131 121.475 94.795 118.768 96.9488 116.94C96.6331 117.956 96.3546 118.987 95.9833 119.984C95.547 121.159 93.3329 122.403 96.22 123.373C96.4057 123.433 96.466 124.069 96.4707 124.436C96.4892 127.133 96.4475 129.83 96.4985 132.526C96.5217 133.752 95.9647 134.137 94.8182 134.123C91.815 134.086 88.8072 134.109 85.804 134.109V134.105Z" fill="#065281"/>
<path d="M45.3977 124.301C47.2962 117.232 47.9228 109.55 54.7323 104.834C54.8669 104.648 55.0061 104.639 55.1593 104.815C55.1686 105.145 55.1779 105.474 55.1871 105.804C54.6998 106.742 53.53 106.556 52.8663 107.201C52.1793 108.561 49.7609 109.267 51.2602 111.485C51.3902 111.68 50.9957 111.973 50.6568 112.029C50.3737 112.075 50.0952 112.149 49.812 112.214C51.7801 114.359 48.3266 114.284 48.2709 115.937C48.206 117.928 47.3333 120.026 46.6603 121.943C46.0568 123.661 46.6974 125.815 45.0264 127.156C45.0496 126.191 45.1749 125.239 45.3977 124.301Z" fill="#13477A"/>
<path d="M89.9723 94.6638L90.3622 95.5782C91.2024 96.8732 91.091 98.3771 91.2767 99.8161C91.1003 101.654 92.5996 101.724 93.7554 102.156C94.2659 102.638 94.3263 103.265 94.1453 103.864C92.9291 107.888 91.6805 111.899 89.4014 115.487L88.5241 117.014C85.4652 119.887 74.6128 120.402 71.3357 117.798C68.6621 112.66 66.2762 107.405 65.0044 101.719C65.3061 100.907 66.1695 100.772 66.7265 100.271C67.1489 99.8439 67.1674 99.2591 67.3253 98.7253C67.497 98.2333 67.5295 97.718 67.5666 97.2028C67.6827 96.5112 67.8451 95.8474 68.6296 95.6014C71.3079 96.5762 73.1228 98.9017 75.8197 99.9739C78.4562 101.023 80.7028 100.772 83.0329 99.4819C85.507 98.1079 87.8603 96.5576 89.977 94.6684L89.9723 94.6638Z" fill="#E3A67B"/>
<path d="M57.4986 55.6871C55.9529 54.4106 53.9569 54.3363 52.1513 53.9186C50.8655 53.6215 50.5035 53.1852 50.5267 51.9876C50.5777 49.3696 50.536 46.7517 50.5452 44.1384C50.5452 42.9548 50.5963 42.3513 52.2441 42.9501C56.7837 44.5933 61.5044 45.4706 66.3225 46.1251C68.6898 46.4453 71.2242 46.631 73.624 47.5176C75.3043 48.1396 77.3049 47.9493 78.846 49.1933C78.4885 52.3589 78.8181 55.5107 79.2498 58.6996C85.6229 56.9867 92.3952 56.0352 99.0143 54.3595C100.453 53.9975 101.948 53.2223 103.461 54.2203C103.624 55.2879 102.788 55.5849 102.083 55.7335C97.1808 56.7407 92.4184 58.37 87.4239 58.9502C86.1103 58.435 84.8338 58.8434 83.6177 59.2426C80.2988 60.3381 77.0171 60.3799 73.6797 59.3123C72.5378 58.9502 71.3403 58.5092 70.0823 58.8713C65.993 58.8991 62.196 57.3767 58.2505 56.6433C57.8096 56.5597 57.4011 56.2812 57.4939 55.6917L57.4986 55.6871Z" fill="#0A4C7E"/>
<path d="M101.646 73.697C101.776 73.7481 101.911 73.7759 102.05 73.7713C102.175 74.4908 101.967 75.1081 101.437 75.6883C100.885 74.9317 101.665 74.3515 101.646 73.697Z" fill="#D39A70"/>
<path d="M56.199 75.498C56.6306 75.6697 56.5703 75.9854 56.5471 76.2639C56.5285 76.4728 56.4543 76.7605 56.1618 76.5285C56.004 76.3985 55.8647 76.1478 55.8647 75.9482C55.8647 75.7951 56.0876 75.6419 56.199 75.498Z" fill="#BF8C66"/>
<path d="M71.3311 117.794C75.2626 118.313 79.171 119.339 83.1721 118.351C84.9546 117.91 86.737 117.459 88.5194 117.014C86.6999 120.825 84.8107 124.584 81.1066 126.994C80.3546 127.964 79.3984 127.667 78.4561 127.411C75.2812 124.798 72.9092 121.591 71.3311 117.794Z" fill="#FDFDFD"/>
<path d="M89.3967 115.487C90.7011 111.945 91.9961 108.399 93.3097 104.862C93.6346 103.984 93.8899 103.102 93.7507 102.156C94.4562 101.77 94.8693 100.146 96.0066 101.636C95.3382 101.705 94.9993 101.91 94.8972 102.74C94.3727 107.029 92.1354 110.729 90.6314 114.679C90.4226 115.227 90.0234 115.547 89.3967 115.487Z" fill="#0F4373"/>
<path d="M112.243 29.2523C101.888 26.8804 91.5504 24.4017 81.1714 22.1319C78.21 21.4867 75.2811 20.1498 72.0876 21.0828C69.0611 21.9694 66.0022 22.7631 62.9433 23.529C52.7825 26.0681 42.6171 28.5793 32.4517 31.0997C31.8993 31.5546 28.9286 30.9651 28.7058 32.0281C34.949 34.3721 43.3923 35.6765 49.8814 36.9808C56.4263 38.2991 62.8319 40.1604 69.3721 41.4554C72.5239 42.0821 75.6199 43.0383 78.8599 43.159C79.7882 43.8738 80.7908 43.5025 81.7377 43.2889C88.2501 41.8175 94.6975 40.0861 101.177 38.4662C101.897 38.2851 102.974 38.3455 102.978 37.1108C102.853 36.5352 101.985 36.5259 102.008 35.8343C100.746 34.7435 99.1582 34.8038 97.645 34.6042C95.9833 34.6553 94.3308 34.6367 92.7433 34.0333C91.9124 33.9683 91.0491 34.3675 90.2553 33.8476C89.5962 33.5181 88.9557 33.1374 88.1898 33.1096C87.4889 33.1607 86.7648 33.3602 86.1381 32.8357C85.595 32.4876 85.0334 32.172 84.5089 31.796C83.794 31.3411 82.9539 31.4107 82.1694 31.2483C80.7026 30.6912 79.1616 30.979 77.653 30.863C76.5436 30.6912 75.7453 30.1435 75.425 29.0202C75.5967 27.3121 76.6133 26.6158 78.2518 26.6576C79.0734 26.6622 79.7557 27.0057 80.3638 27.5256C81.1158 28.013 81.0322 29.1038 81.8306 29.554C83.1303 30.0553 84.5321 30.1946 85.841 30.6727C87.7024 31.0022 89.6009 31.174 91.3369 32.0095C91.801 32.1488 92.2791 32.2323 92.7665 32.2369C93.6113 32.1766 94.4376 32.2555 95.2313 32.5572C98.3413 33.0307 101.326 34.2143 104.515 34.2654C105.42 34.0844 106.214 34.7342 106.687 36.2056L108.915 35.7554C113.367 34.9663 117.683 33.6388 122.037 32.469C122.534 32.4551 123.653 31.9492 123.393 31.5592" fill="#075384"/>
<path d="M29.1981 37.1247H29.1795C28.6039 35.7739 29.3141 34.3025 28.771 32.9517C28.7617 32.6547 28.7571 32.353 28.7478 32.0559C28.8871 31.963 29.0356 31.9491 29.1888 32.0234" fill="#014B84"/>
<path d="M103.925 53.8907C103.772 54.0299 103.619 54.1645 103.461 54.3038C100.268 54.6658 97.1624 55.4271 94.0989 56.3601C92.711 56.7825 91.2396 56.9867 89.8563 57.2235C86.5003 57.7897 83.1954 58.4906 79.9091 59.3587C78.9946 59.6 77.9642 59.3958 76.7852 59.2055C78.5072 58.4349 78.8415 57.7573 78.173 55.8263C77.4861 53.8535 77.2401 51.2542 78.8554 49.1932C78.8554 49.0447 78.86 48.8962 78.86 48.7476C79.3474 47.94 80.2015 47.7543 81.0138 47.5408C87.7118 45.7769 94.4377 44.1337 101.178 42.5277C103.364 42.0078 103.61 42.2585 103.684 44.6165C103.698 45.0667 103.573 45.5448 103.921 45.9394C104.515 47.9121 104.445 49.9452 104.464 51.969C103.995 52.5306 103.749 53.1526 103.935 53.8907H103.925Z" fill="#075284"/>
<path d="M103.912 45.9394C102.788 45.2292 104.371 43.1729 102.626 42.9965C101.554 42.8897 100.412 43.5628 99.2884 43.8367C92.4789 45.4798 85.6695 47.1091 78.8601 48.7476C77.5418 47.1509 77.5372 44.8486 78.8601 43.1636C86.7139 41.2837 94.5677 39.4038 102.422 37.5146C102.626 37.4635 102.793 37.2547 102.974 37.1154C103.095 37.1293 103.211 37.1526 103.322 37.1943C104.158 38.5079 103.308 40.0351 103.856 41.3858C103.879 42.9037 103.898 44.4215 103.921 45.944L103.912 45.9394Z" fill="#07395C"/>
<path d="M103.851 41.3812C103.16 40.049 103.531 38.5822 103.317 37.1897C104.417 38.4708 103.809 39.9655 103.851 41.3812Z" fill="#AF884C"/>
<path d="M28.7756 32.9518C29.5971 34.2747 29.0355 35.7368 29.184 37.1247C28.2882 35.8065 28.9009 34.3443 28.7756 32.9518Z" fill="#194779"/>
<path d="M104.891 82.2471C105.369 81.5369 105.355 80.7292 105.364 79.9216C105.866 78.9839 105.838 77.9767 105.782 76.9601C104.585 77.1226 103.104 77.0158 102.547 78.283C99.6875 84.7815 94.9901 89.841 89.9723 94.6638C89.7774 95.1047 89.912 95.5039 90.1255 95.8938C90.2508 96.0748 90.353 96.2605 90.4412 96.4508C90.5293 97.2167 90.6686 97.9687 90.8868 98.7067C90.9007 99.1802 90.8868 99.6536 90.9007 100.127C91.0028 101.664 91.9358 102.341 93.3608 102.518C94.4284 102.768 94.7441 100.782 96.0112 101.631C97.7008 101.654 99.0284 102.833 100.644 103.093C100.778 103.181 100.913 103.274 101.052 103.367C101.103 102.815 101.154 102.258 101.201 101.705" fill="#3E2D1C"/>
<path d="M57.4988 55.6871C55.1733 55.2414 52.8524 54.8005 50.5269 54.3549C50.4248 54.2899 50.318 54.2667 50.1973 54.2852C49.2226 57.8269 48.6052 61.3918 49.4918 65.0541C49.7889 64.4135 50.0859 63.773 50.383 63.1324C52.3186 61.0436 52.9731 61.1272 54.2032 63.6012C54.3006 63.8008 54.5095 63.9447 54.6627 64.1165C54.6998 64.706 54.7323 65.2955 54.7694 65.8896C54.7741 66.9758 54.7834 68.0619 54.788 69.1481C54.7973 69.4637 54.8019 69.784 54.8112 70.0997C54.6766 70.9816 54.7555 71.8357 55.1454 72.648C55.0851 73.2885 54.9783 73.9523 56.0227 74.3747C56.032 72.1513 56.1573 70.1693 56.6122 68.2337C58.0001 64.9473 60.7202 63.1881 63.8348 61.8327C65.9468 60.9137 68.0031 59.8646 70.0872 58.8713C69.3352 58.2586 68.4022 58.2075 67.511 58.0033C64.1736 57.2374 60.8362 56.4622 57.4941 55.6917L57.4988 55.6871Z" fill="#3E2D1C"/>
<path d="M101.646 73.697C101.725 74.0266 101.86 74.0498 102.05 73.7713L102.473 72.3741C102.626 71.7614 102.779 71.1441 102.932 70.5313L103.071 68.8C103.396 67.1846 103.721 65.5693 104.051 63.954C103.54 63.1138 103.234 62.218 103.359 61.2154C103.415 60.6398 103.471 60.0689 103.526 59.4933C103.925 57.6412 105.058 55.8449 103.925 53.886C103.707 53.951 103.554 54.0949 103.461 54.2992C103.081 54.5405 102.733 54.9072 102.319 55.0047C99.1352 55.7427 95.9045 56.3044 92.7621 57.1724C90.9704 57.6691 88.9326 57.5437 87.4287 58.9409C89.666 60.4913 92.3536 60.9926 94.7952 62.0787C100.24 64.5017 102.157 67.686 101.646 73.697Z" fill="#3E2D1C"/>
<path d="M67.2695 94.5988C66.8147 94.0928 66.3737 93.5776 65.9049 93.0856C62.3447 89.3258 58.8448 85.501 56.6632 80.7385C55.8323 78.9236 55.3403 77.0901 52.7316 77.2294C51.8682 77.2758 50.9352 75.9575 50.058 75.7533L49.9094 75.9018C50.912 83.1337 51.6269 90.4119 53.284 97.5463C53.284 98.2193 53.3025 98.8878 53.7481 99.4494C53.7249 100.396 53.6924 101.348 54.203 102.207C54.2077 102.843 54.1845 103.483 54.6162 104.017C54.6579 104.291 54.6951 104.565 54.7368 104.838L54.9504 104.843L55.1639 104.815C57.7308 102.638 61.1517 102.378 64.0296 100.902C64.4381 100.693 64.7723 101.315 65.0044 101.715C65.7842 101.394 66.564 101.074 67.3392 100.749C68.0819 100.331 67.7569 99.6165 67.8219 99.0084C68.1329 98.5257 68.2118 97.9965 68.1468 97.4349C68.3093 96.8222 68.4671 96.2095 68.6296 95.5921C68.3975 94.9562 67.989 94.5663 67.2695 94.5895V94.5988Z" fill="#3E2D1C"/>
<path d="M91.3928 33.7966C93.4305 34.2654 95.4636 34.7296 97.5013 35.1984C95.691 35.3887 93.9179 35.3655 92.2886 34.3861C91.5181 34.6414 90.7476 34.7157 89.9863 34.3397C89.3597 34.0472 88.7284 33.7595 88.1018 33.467C87.3312 33.7038 86.5654 33.8012 85.8134 33.4067C85.3631 33.0818 84.9175 32.7615 84.4673 32.4366C87.0156 31.6614 89.1972 32.7522 91.3881 33.7966H91.3928Z" fill="#25476C"/>
<path d="M82.8937 32.91H77.5417C77.5417 32.8032 77.5417 32.6965 77.5464 32.5897H82.9308C82.9169 32.6965 82.903 32.8032 82.889 32.91H82.8937Z" fill="#01568E"/>
<path d="M82.2161 28.1058C83.1351 27.8041 83.6179 28.0083 84.0031 28.6024C83.3487 28.7556 82.7174 29.0156 82.2161 28.1058Z" fill="#035399"/>
<path d="M99.0283 36.4702C99.9381 36.1314 100.514 36.0989 101.136 36.4052C100.551 36.823 99.9752 36.6745 99.0283 36.4702Z" fill="#04509A"/>
<path d="M102.092 32.2648C101.451 32.5758 100.871 32.5479 100.101 32.2648C100.862 31.9027 101.437 31.9306 102.092 32.2648Z" fill="#07539D"/>
<path d="M85.8179 33.402C86.5791 33.4206 87.345 33.4438 88.1062 33.4624C87.3264 34.0658 86.5606 34.089 85.8179 33.402Z" fill="#04529F"/>
<path d="M89.991 34.3397C90.7569 34.3536 91.5227 34.3722 92.2933 34.3861C91.5135 34.9988 90.7476 35.0081 89.991 34.3397Z" fill="#0C529B"/>
<path d="M92.7851 30.3524C92.3117 30.7516 91.8614 30.682 91.3555 30.4267C91.8289 30.0368 92.2792 30.0971 92.7851 30.3524Z" fill="#045299"/>
<path d="M90.7568 25.279C91.4438 25.033 91.8569 24.968 92.2979 25.2511C91.8662 25.6735 91.4206 25.5575 90.7568 25.279Z" fill="#025397"/>
<path d="M103.016 53.7654C102.319 52.9391 102.514 52.4053 103.109 51.7416C103.563 52.5028 103.508 53.0505 103.016 53.7654Z" fill="#01558F"/>
<path d="M106.678 53.8164C107.342 53.0505 106.738 52.2754 106.697 51.5048C106.98 49.2397 107.138 46.9791 106.748 44.7186C106.757 44.5979 106.766 44.4726 106.775 44.3519C106.887 44.092 106.859 43.8506 106.692 43.6231L106.701 42.2538C106.966 42.0403 106.966 41.8268 106.701 41.6179C106.488 39.6591 106.919 37.6631 106.33 35.7275C106.27 34.6135 105.615 34.0658 104.571 33.894C104.339 33.894 104.111 33.9173 103.888 33.9776C103.879 33.9776 103.87 33.9869 103.856 33.9915C101.08 32.8357 98.114 32.4505 95.1711 31.9816C94.4238 31.5453 93.6347 31.3504 92.7714 31.5128C92.3304 31.5128 91.8894 31.5175 91.4485 31.5221C89.7542 30.3478 87.7815 30.2735 85.8366 30.1017C84.5508 29.4055 83.0933 29.4148 81.7101 29.1177C81.6451 29.178 81.6033 29.243 81.5708 29.308C81.543 29.2941 81.5105 29.2848 81.4826 29.2709C81.3944 28.4493 81.3944 27.5998 80.6471 27.0289C80.0019 26.458 79.4031 25.771 78.3866 26.0913C75.8104 26.0263 74.9517 26.8061 74.9006 29.2616C75.012 30.5938 75.8383 31.1879 77.0683 31.3597C78.7161 31.9306 80.4986 31.225 82.1325 31.9074C82.9169 32.0745 83.771 31.9167 84.4719 32.4412C86.8299 32.5387 89.0487 33.3463 91.3371 33.7919C91.3463 33.843 91.3556 33.8987 91.3788 33.959C93.3794 34.581 95.4032 35.073 97.5013 35.2077C98.8892 35.4026 100.282 35.6022 101.67 35.7972C101.67 35.8018 101.67 35.8064 101.67 35.8157C101.637 36.5584 102.115 37.0319 102.589 37.5007C102.746 37.6492 102.886 37.8117 103.025 37.9788C103.443 39.2042 103.225 40.4528 103.164 41.6968C103.294 43.1172 103.225 44.5422 103.285 45.9672C103.809 47.9168 103.303 49.9963 104.037 51.9179C104.074 51.9829 104.12 52.0386 104.167 52.0943C103.498 52.4193 103.429 53.0784 103.457 53.7932C103.967 55.7474 103.299 57.5901 102.937 59.4561C102.807 60.0781 102.825 60.7094 102.77 61.336C102.849 62.3851 102.872 63.462 104.065 63.9679C105.267 63.513 106.464 63.0581 107.667 62.6032C107.532 59.6557 106.511 56.8103 106.692 53.8257L106.678 53.8164ZM94.1035 32.1023C94.1035 32.1023 94.0942 32.1023 94.0896 32.1023C94.0896 32.1023 94.0989 32.1023 94.1035 32.1023Z" fill="#F4AF30"/>
</g>
<defs>
<clipPath id="clip0_853_22">
<rect width="149" height="149" fill="white" transform="translate(0.386719)"/>
</clipPath>
</defs>
</svg>
