<svg width="157" height="158" viewBox="0 0 157 158" fill="none" xmlns="http://www.w3.org/2000/svg">
<path d="M78.0644 156.922C121.178 156.922 156.129 121.963 156.129 78.8377C156.129 35.7128 121.178 0.753235 78.0644 0.753235C34.9506 0.753235 0 35.7128 0 78.8377C0 121.963 34.9506 156.922 78.0644 156.922Z" fill="#63C5DB"/>
<path d="M41.3134 106.209C43.0157 104.671 45.5789 104.671 47.1743 102.934C49.256 105.216 50.9681 107.765 52.5391 110.412C55.1315 114.212 57.8163 117.933 61.2113 121.071C64.1685 123.387 67.116 125.703 70.2823 127.766C72.364 129.118 74.7814 129.357 76.8582 130.539C77.0139 130.626 77.2765 130.354 77.4516 130.189C77.9477 129.785 78.2979 129.079 78.9886 129.065C83.4779 128.982 86.3086 125.995 89.2804 123.261C94.9711 118.021 99.8301 112.091 103.94 105.537C104.48 104.676 104.884 103.611 106.061 103.329C107.894 104.486 110.137 104.827 111.863 106.199C112.335 106.836 112.34 107.537 112.179 108.276C110.389 116.508 110.059 124.876 109.674 133.258C109.446 138.255 108.959 143.232 109.65 148.223C109.772 149.114 109.227 149.746 108.896 150.466C103.94 152.811 98.833 154.694 93.3709 155.458C92.2814 155.847 91.0022 155.433 90.01 156.236C89.4944 156.28 88.9789 156.324 88.4633 156.372C86.2503 155.755 83.8475 156.703 81.6977 155.555C81.5421 155.307 81.547 155.059 81.7123 154.816C83.3223 154.563 84.9176 154.757 86.7756 154.655C84.4847 154.874 82.4127 154.164 80.4672 155.356C79.9419 155.526 79.4117 155.531 78.8767 155.443C77.938 155.078 76.7172 155.117 76.4399 153.784C76.3718 152.373 77.6121 151.736 78.2347 150.734C78.9302 148.661 77.3981 149.615 76.8874 149.887C73.8475 151.502 70.4477 152.407 67.6996 154.587C67.1354 155.035 66.5469 155.463 65.8173 155.633C64.2609 155.896 62.7239 155.691 61.1918 155.477C54.8397 154.383 48.8766 152.188 43.22 149.138C42.7677 147.416 42.5342 145.616 42.5536 143.884C42.6363 135.808 42.043 127.766 41.5079 119.719C41.2648 116.09 40.8562 112.485 40.3309 108.899C40.1558 107.722 40.2725 106.846 41.3182 106.209H41.3134Z" fill="#075384"/>
<path d="M108.896 150.471C108.94 149.167 108.585 147.878 108.527 146.628C108.206 139.554 108.707 132.485 109.3 125.44C109.475 123.363 109.611 121.261 109.718 119.203C109.952 114.757 110.851 110.485 111.868 106.204C113.935 106.865 114.694 108.739 115.55 110.407C117.948 115.087 119.13 120.162 120.039 125.304C119.976 126.919 120.015 128.525 120.657 130.052C120.759 130.422 120.866 130.797 120.968 131.167C120.944 134.737 120.886 138.308 121.97 141.772C122.024 142.103 122.077 142.429 122.136 142.76C118.084 145.956 113.643 148.472 108.896 150.471Z" fill="#0A4879"/>
<path d="M41.3133 106.209C40.4232 107.07 41.2306 107.921 41.2793 108.797C41.5273 112.961 42.0623 117.102 42.4077 121.251C43.0448 128.958 43.3075 136.654 43.3513 144.38C43.361 145.976 44.2121 147.567 43.2199 149.138C41.0604 148.437 39.2073 147.177 37.3688 145.893C36.3619 143.942 34.8104 142.818 32.573 142.74C31.7413 142.098 30.9096 141.456 30.0779 140.814C30.7102 138.561 30.2967 136.163 31.075 133.935C31.7413 131.916 31.8678 129.843 31.6732 127.737C32.5925 121.611 33.9203 115.598 36.8045 110.047C37.7724 108.184 38.7987 106.301 41.3084 106.209H41.3133Z" fill="#0A4879"/>
<path d="M66.1139 154.952C69.3143 151.838 73.7404 150.996 77.4613 148.841C78.1908 148.418 79.042 148.248 79.5721 149.148C80.0634 149.985 79.8105 150.685 78.9058 151.104C78.6772 151.186 78.434 151.259 78.2638 151.425C77.4272 152.242 76.0119 152.879 76.4982 154.29C76.9895 155.72 78.5313 155.273 79.6549 155.395C81.615 155.609 83.5945 155.662 85.5936 155.828C85.4525 157.034 84.4019 156.927 83.8377 157.409C78.1276 157.968 72.4661 157.53 66.8338 156.557C66.2744 156.625 65.7151 156.737 65.185 156.436C65.0293 156.377 64.8785 156.319 64.7229 156.261C64.7375 155.346 65.7297 155.477 66.1139 154.957V154.952Z" fill="#F9B88E"/>
<path d="M84.1102 156.874C84.4166 156.64 84.723 156.406 85.3748 155.91C83.011 155.91 80.9779 155.959 78.9497 155.891C77.8407 155.852 76.3961 156.416 75.9243 154.743C75.4963 153.21 76.6636 152.422 77.578 151.541C77.9477 151.186 78.4 151.069 78.901 151.104C78.1957 151.867 77.4905 152.626 76.7852 153.39C76.0703 155.375 78.0839 154.305 78.5508 154.966C79.5333 155.648 80.7395 154.563 81.7026 155.375C83.9351 155.857 86.401 154.743 88.4584 156.382C88.1471 156.538 87.8359 156.698 87.5246 156.854C86.5275 157.394 85.4575 157.01 84.4263 157.112C84.3193 157.034 84.2172 156.951 84.1102 156.874Z" fill="#F1B891"/>
<path d="M66.6101 156.387C66.9506 155.959 67.4272 155.828 67.9039 155.969C73.2395 157.54 78.7016 156.65 84.1101 156.869L84.1442 156.917C84.1442 157.282 83.9691 157.574 83.614 157.569C79.5673 157.487 75.5158 157.91 71.4788 157.36C71.1675 157.36 70.8562 157.35 70.5449 157.346C69.2901 156.791 67.7142 157.569 66.6101 156.387Z" fill="#F1B891"/>
<path d="M32.5731 142.745C32.6314 142.269 32.792 141.515 33.2346 141.67C34.5138 142.128 35.4719 143.237 36.9408 143.48C37.2083 143.524 37.2278 145.056 37.364 145.898C35.5984 145.1 34.0906 143.918 32.5682 142.745H32.5731Z" fill="#13497B"/>
<path d="M66.1141 154.952C65.6472 155.39 65.1851 155.823 64.7182 156.256C63.5703 155.867 62.2619 156.212 61.1919 155.477C62.8407 155.38 64.5139 155.526 66.1141 154.947V154.952Z" fill="#2D3D5B"/>
<path d="M90.0051 156.246C90.8903 154.962 92.1987 155.526 93.366 155.468C92.3446 156.168 91.1335 156.022 90.0051 156.246Z" fill="#274968"/>
<path d="M64.6208 91.1707C64.436 91.049 64.256 90.9226 64.0712 90.8009C63.22 90.2804 62.3445 89.8036 61.4885 89.2879C58.5945 86.1159 55.8124 82.8611 54.29 78.755C53.7453 77.2809 52.4855 76.5268 51.4301 75.5538C48.0984 72.6737 47.2715 68.0713 49.1295 62.8024C49.4408 62.0921 49.5235 61.2748 50.0974 60.6861C52.9865 59.4407 53.8815 60.0293 54.9126 63.829C55.3747 65.1133 54.898 66.5047 55.326 67.7551C55.3017 63.7998 54.6013 59.8299 56.255 56.0497C56.7365 54.9502 57.0965 53.768 58.1957 53.0625C60.7443 52.6539 62.9817 53.6463 65.2288 54.5999C65.9535 55.1059 66.7463 55.4805 67.5926 55.7529C72.8309 58.3801 78.5265 59.4942 84.1588 60.8223C87.3689 61.5813 90.6812 61.8537 93.8573 62.7878C95.6763 63.323 97.0917 64.2328 97.4176 66.2761C97.437 66.4318 97.4516 66.5874 97.4614 66.748C97.476 66.9864 97.4857 67.2296 97.5489 67.4632C97.7629 67.3221 97.5927 67.0837 97.6851 66.9037C97.7581 66.4707 97.865 66.0523 97.9915 65.6388C98.0645 65.1912 98.1326 64.7436 98.259 64.3057C98.726 62.8803 98.5606 61.2164 99.8009 60.0731C100 59.932 100.219 59.8542 100.457 59.8153C101.095 59.8055 101.596 60.0828 102.019 60.5353C102.087 60.6861 102.121 60.8418 102.126 61.0023C103.711 62.2137 104.1 64.0138 103.843 65.7409C103.356 69.0394 102.753 72.3623 100.657 75.1451C100.603 75.4662 100.545 75.7873 100.492 76.1084C99.7668 76.6047 99.1005 77.1544 98.7697 78.0058C97.0188 81.6887 94.9662 85.1623 91.9506 87.9695C91.581 88.3489 91.1481 88.6603 90.7979 89.0592C90.3067 89.4193 89.8641 89.8425 89.4117 90.2512C89.2707 90.2707 89.1296 90.2804 88.9886 90.2804C88.5849 91.555 87.8067 92.4843 86.6442 93.1897C83.4584 95.1211 80.3115 96.965 76.3475 96.8677C73.4049 96.7947 70.7735 96.2012 68.5459 94.2162C67.9087 93.4524 67.1451 92.888 66.1432 92.6886C65.3261 92.4988 65.1704 91.735 64.6159 91.1755L64.6208 91.1707Z" fill="#F7BA8D"/>
<path d="M39.3824 27.9442C42.359 27.302 45.3503 26.7133 48.1956 25.5846C53.0254 24.4656 57.8601 23.3467 62.6898 22.2228C64.0177 21.9163 65.3358 21.5806 66.6587 21.2595C67.6607 21.6779 68.6043 21.1087 69.4651 20.8655C71.255 20.3595 73.0255 20.1941 74.8494 20.2622C88.293 23.3272 101.737 26.3922 115.18 29.4669C116.518 29.7734 117.836 30.1529 119.164 30.4983C119.271 30.7659 119.222 30.9994 119.018 31.2038C114.139 33.0573 109.115 34.3077 103.92 34.8623C102.131 32.5027 99.2512 32.0989 96.8047 30.9264C95.8952 30.2113 94.8738 30.0118 93.7502 30.2794C93.0596 30.2648 92.403 30.0994 91.7415 29.9242C90.9827 29.5934 90.1656 29.6859 89.3679 29.6129C86.7561 29.248 84.1734 28.742 81.5955 28.1825C80.5936 27.9636 79.7278 27.6523 79.2171 26.7279C78.4924 25.4192 77.3786 24.5824 75.9195 24.8354C74.3971 25.0981 72.9671 25.7792 72.826 27.6863C73.7502 29.6615 75.3844 30.3183 77.4564 30.2891C78.6043 30.2745 79.8591 29.9048 80.793 30.98C81.4934 32.1087 82.2765 30.5956 83.006 31.0383C84.6986 31.2232 86.3329 31.8654 88.0693 31.6951C89.1199 31.6368 90.0683 32.24 91.1238 32.1573C93.5119 32.4103 95.8076 33.0963 98.1326 33.6217C99.0421 33.826 99.8008 34.2006 99.9176 35.271C99.7327 36.2391 98.9205 36.5116 98.1569 36.7013C91.0605 38.4527 84.0566 40.5788 76.8436 41.8534C75.0342 41.9945 73.3076 41.5664 71.5712 41.1431C59.3095 38.1365 46.9116 35.7088 34.6596 32.673C33.108 32.2887 31.4251 32.0843 30.574 30.4107L39.3678 27.9539L39.3824 27.9442Z" fill="#075384"/>
<path d="M106.065 103.333C100.754 112.392 94.1977 120.41 85.9925 126.997C84.0761 128.534 82.0236 130.038 79.295 129.644C78.4681 129.522 78.4876 130.549 77.8407 130.636C77.6559 130.476 77.5489 130.271 77.5002 130.033C77.972 127.425 79.8689 125.513 80.8611 123.159C84.7765 117.072 88.1909 110.689 92.0479 104.569C93.0012 103.056 93.4098 101.066 95.3796 100.341C96.2211 99.6262 97.0674 99.2759 98.191 99.8645C100.088 100.862 102.32 101.081 104.11 102.355C104.553 103.066 105.487 102.842 106.027 103.358L106.065 103.329V103.333Z" fill="#0B4879"/>
<path d="M95.3796 100.341C91.1772 107.366 86.9554 114.382 82.8115 121.446C82.4029 122.142 81.9846 122.774 81.4252 123.329C80.4671 123.071 80.54 122.151 80.2239 121.48C80.0245 120.619 80.0147 119.724 79.6743 118.892C79.577 118.58 79.5721 118.23 79.4262 117.958C77.1694 113.706 78.1178 109.546 79.7618 105.401C82.2472 102.112 85.8124 100.166 89.115 97.8893C89.8202 97.4028 90.6617 97.6363 91.4058 98.0353C92.8163 98.658 94.6646 98.5266 95.3796 100.346V100.341Z" fill="#FDFDFD"/>
<path d="M64.6208 91.1707C65.3147 91.5436 65.8189 91.8826 66.1334 92.1875C66.7803 92.927 67.505 92.8394 68.5605 93.647C71.7949 96.0357 75.5157 96.7606 79.2949 95.8898C83.006 95.0335 86.2794 93.034 88.9983 90.2706C88.7113 91.5064 89.2415 92.6156 89.5333 93.7589C89.5771 94.7222 88.8475 95.1649 88.2298 95.666C87.2278 96.4833 86.1627 97.2325 85.0537 97.8893C81.6393 99.9181 78.4584 102.166 76.8922 106.043C76.5469 106.184 76.1967 106.189 75.8416 106.068C75.6276 105.956 75.3504 105.834 75.2871 105.625C74.0079 101.499 70.4379 99.6018 67.2764 97.2909C66.1918 96.4979 64.898 95.88 64.3776 94.4838C64.6402 93.3891 64.8445 92.2945 64.6208 91.1658V91.1707Z" fill="#E4A679"/>
<path d="M104.052 34.3223C109.076 33.179 114.096 32.0406 119.12 30.8973C120.239 33.9282 119.864 35.0423 117.291 36.3121C112.724 37.5332 108.157 38.7544 103.59 39.9804C101.868 39.2749 102.578 37.7133 102.359 36.4775C102.277 35.7137 102.393 34.9937 102.865 34.3612C103.249 34.0255 103.648 34.0061 104.052 34.3223Z" fill="#093A5F"/>
<path d="M76.8096 105.805C77.3884 102.414 79.6257 100.448 82.4419 98.7699C84.9176 97.2958 87.3787 95.7293 89.5333 93.7638C90.4526 95.0579 89.9322 96.9845 91.4059 98.0353C90.404 97.938 89.5479 98.2251 88.7357 98.8527C85.9147 101.037 83.0596 103.178 80.2142 105.333C79.3728 106.233 78.5362 107.138 77.1355 107.007C76.615 106.72 76.4302 106.34 76.8096 105.81V105.805Z" fill="#EEEDEE"/>
<path d="M103.147 36.3315C103.546 37.5186 102.953 38.8225 103.595 39.9804C103.585 43.274 103.57 46.5628 103.561 49.8564C103.293 50.0316 103.031 50.0316 102.763 49.8564C102.252 49.477 102.033 48.9418 101.956 48.3337C101.834 45.113 101.858 41.8923 101.902 38.6765C101.917 37.7667 101.498 36.4483 103.147 36.3364V36.3315Z" fill="#C4A95C"/>
<path d="M100.667 75.1354C101.61 72.4304 102.924 69.9103 103.293 66.9426C103.575 64.6706 103.303 62.8267 102.131 60.9926C103.697 61.2505 103.989 62.6467 104.062 63.7414C104.339 67.9205 103.497 71.8466 100.662 75.1305L100.667 75.1354Z" fill="#ECB792"/>
<path d="M121.97 141.772C120.375 140.804 121.182 139.106 120.876 137.788C120.375 135.633 120.268 133.366 120.968 131.167C121.304 134.703 121.639 138.24 121.97 141.772Z" fill="#034D74"/>
<path d="M74.8544 20.2622C72.0917 20.3205 69.4896 21.7363 66.6588 21.2644C69.3826 20.8508 71.9409 19.1286 74.8544 20.2622Z" fill="#03597D"/>
<path d="M117.296 36.3169C117.106 36.2099 116.922 36.1077 116.732 36.0007C119.796 35.3634 119.13 32.9746 119.125 30.8972C119.135 30.761 119.149 30.6248 119.169 30.4934C119.3 30.4837 119.431 30.4934 119.558 30.5324C120.078 32.2692 119.947 34.0206 119.645 35.7721C118.911 36.171 118.123 36.3218 117.296 36.3121V36.3169Z" fill="#013455"/>
<path d="M120.652 130.052C119.475 128.408 119.358 127.508 120.034 125.304C120.642 126.832 120.613 128.447 120.652 130.052Z" fill="#034C72"/>
<path d="M119.645 35.7769C119.616 34.0304 119.587 32.2838 119.558 30.5372C120.462 32.2692 120.316 34.0206 119.645 35.7769Z" fill="#075384"/>
<path d="M106.027 103.363C105.268 103.256 104.276 103.601 104.11 102.36C104.884 102.438 105.662 102.506 106.027 103.363Z" fill="#00446C"/>
<path d="M77.8116 130.179C77.8116 130.335 77.8213 130.485 77.8407 130.636C77.6073 131.585 77.0139 131.721 76.2016 131.371C70.5012 128.904 65.224 125.786 60.7833 121.378C57.7531 117.904 55.3212 113.939 52.0284 110.68C50.5838 107.989 48.0887 105.965 47.1743 102.944C50.0586 101.786 52.9769 100.701 55.8173 99.4462C57.0236 98.911 57.3397 99.6311 57.7872 100.375C59.1053 100.609 59.4798 101.777 60.044 102.716C64.2318 109.692 68.5557 116.586 72.8018 123.523C73.7746 124.968 74.5139 126.545 75.4088 128.038C75.9925 129.011 76.6977 129.819 77.8116 130.184V130.179Z" fill="#0B4779"/>
<path d="M30.5886 30.401C36.3911 32.6681 42.5001 33.6266 48.5507 34.9207C53.4972 35.9812 58.4 37.3191 63.3708 38.3311C67.8601 39.2457 72.1792 40.9825 76.829 41.1236C77.4127 42.9529 77.116 44.8114 77.043 46.6698C76.4788 47.6526 75.545 47.3801 74.6695 47.3947C70.2823 47.4774 66.542 45.473 62.7482 43.6924C60.6422 42.7048 58.4924 42.2961 56.1772 42.3691C54.2463 42.4323 52.2813 42.3788 50.5887 41.1917C50.399 40.9971 50.1898 40.822 49.9661 40.6712C49.6742 40.5252 49.3824 40.3744 49.0906 40.2285C46.5663 39.4549 44.076 38.5111 41.3668 38.6084C38.2491 37.8494 35.0439 37.4359 32.0186 36.2926C29.9563 35.8742 28.93 34.7698 29.3921 32.5465C29.4991 32.0405 29.5769 31.4275 29.2024 30.9264C29.4991 30.3232 30.073 30.4399 30.5837 30.401H30.5886Z" fill="#094879"/>
<path d="M72.2764 123.674C67.6753 116.24 63.0692 108.802 58.4681 101.368C58.254 101.027 58.0157 100.701 57.7871 100.371C59.0955 98.8526 61.0361 98.6678 62.7628 98.0353C63.4972 97.6169 64.3289 97.4028 65.0147 97.9185C68.1373 100.249 71.5128 102.321 73.5264 105.849C75.827 110.5 75.0537 115.185 73.7113 119.884C73.5994 120.381 73.5945 120.896 73.4632 121.392C73.0498 122.142 73.2978 123.241 72.2764 123.674Z" fill="#FDFDFE"/>
<path d="M72.9185 105.708C70.6763 102.915 67.7385 100.901 65.0342 98.6191C64.329 98.0207 63.5653 98.0548 62.7628 98.0353C64.1441 97.2374 63.7988 95.6514 64.3776 94.4886C67.4321 96.712 70.472 98.9548 73.5459 101.149C75.1753 102.307 74.9905 104.311 75.8611 105.815C76.2697 106.379 76.0411 106.754 75.5012 107.036C74.3047 107.255 73.5702 106.564 72.9185 105.712V105.708Z" fill="#ECEDEC"/>
<path d="M41.3717 38.6133C44.1976 37.9467 46.7171 38.7446 49.0955 40.2285C46.4447 40.0485 43.9349 39.2068 41.3717 38.6133Z" fill="#024C74"/>
<path d="M31.6781 127.737C32.8892 130.33 31.3961 132.845 31.5663 135.492C30.8562 135.039 31.2355 134.421 31.0799 133.935C30.9145 131.833 31.3036 129.785 31.6781 127.737Z" fill="#044C72"/>
<path d="M50.5595 51.6128C50.399 51.6711 50.2385 51.7295 50.078 51.7928C50.0439 48.0856 50.005 44.3832 49.9709 40.6761C50.1704 40.6615 50.3698 40.6517 50.5692 40.6371C51.8776 44.2957 52.0624 47.9542 50.5595 51.6128Z" fill="#004473"/>
<path d="M29.2074 30.9264C29.3533 31.2767 29.6549 31.6464 29.6257 31.9821C29.4409 34.0936 29.7522 35.7866 32.4029 35.8207C32.4467 35.8207 32.4905 35.9082 32.5294 35.952C32.3592 36.0639 32.1889 36.1807 32.0138 36.2926C29.757 36.531 28.8086 35.5433 29.1199 33.2811C29.2269 32.5075 29.1782 31.7097 29.1977 30.9264H29.2074Z" fill="#01476E"/>
<path d="M52.0284 110.675C52.4564 110.865 53.0352 110.938 53.2881 111.263C55.8854 114.562 58.9302 117.53 60.7784 121.373C60.6374 121.431 60.3991 121.568 60.3747 121.534C57.544 117.948 54.3193 114.669 52.0236 110.67L52.0284 110.675Z" fill="#0A4C7E"/>
<path d="M80.2336 154.893C82.3932 153.925 84.6305 154.689 86.8533 154.952H81.6587C81.1724 155.253 80.6957 155.307 80.2336 154.893Z" fill="#055595"/>
<path d="M78.2104 154.962C76.2114 154.811 76.1627 154.752 76.7902 153.39C76.8291 154.733 78.1666 154.242 78.7649 154.791C78.6725 155.151 78.4876 155.21 78.2104 154.962Z" fill="#223F58"/>
<path d="M78.2103 154.962C78.3952 154.908 78.58 154.85 78.7648 154.791C79.2561 154.825 79.7424 154.859 80.2337 154.893C80.7104 154.913 81.1821 154.932 81.6588 154.952C81.6782 155.093 81.6928 155.234 81.7026 155.375C80.5109 155.468 79.3193 155.57 78.2103 154.962Z" fill="#3E5976"/>
<path d="M50.5594 51.6128C50.5594 47.9542 50.5643 44.2957 50.5692 40.6371C52.0088 41.1869 53.4875 41.7756 55.0293 41.581C59.4408 41.0215 63.1714 42.8605 66.9165 44.7335C70.0488 46.3001 73.3513 46.8936 76.8338 46.4898C77.2667 46.0666 77.7434 46.052 78.2492 46.3341C77.3056 48.8105 76.863 51.3355 77.4029 53.9869C77.5342 54.6242 77.1792 55.2421 76.4836 55.9816C79.2755 55.8259 81.6442 54.8869 84.1004 54.4004C85.4817 54.1231 86.9409 53.4809 88.1276 54.8967C87.9671 55.5437 87.437 55.7627 86.902 55.9475C80.5449 58.1417 74.1782 58.8909 67.7871 56.0789C66.9408 55.6118 65.9583 55.6118 65.0731 55.2859C62.9962 54.2302 60.7346 53.8361 58.4729 53.4323C55.8367 52.8242 53.2054 52.216 50.5692 51.603L50.5594 51.6128Z" fill="#0B4B7E"/>
<path d="M78.2833 46.4509C77.7969 46.4606 77.3154 46.4752 76.829 46.485C75.9633 44.6995 76.1676 42.9091 76.829 41.1237C84.2804 39.2993 91.7367 37.4797 99.188 35.6407C99.3826 35.5921 99.5237 35.3148 99.689 35.1494C101.537 35.8986 100.827 37.7327 101.245 39.056C101.596 40.1507 101.401 41.4156 101.284 42.5978C101.241 42.8605 101.148 43.1086 101.017 43.3373C100.881 43.5513 100.681 43.6778 100.428 43.7167C99.4069 43.5611 99.8787 42.0724 98.833 41.941C93.0353 43.1427 87.3689 44.8357 81.615 46.1785C80.5207 46.4315 79.436 46.8693 78.2833 46.4558V46.4509Z" fill="#08385C"/>
<path d="M104.052 34.3223C103.731 34.3369 103.41 34.3466 103.094 34.3612C102.889 34.4974 102.67 34.512 102.442 34.4244C101.095 33.0768 99.4117 32.5076 97.5586 32.3276C96.2843 32.0113 95.0489 31.5297 93.7016 31.6076C92.3981 31.6903 91.1773 31.34 89.9613 30.9508C88.0644 30.2745 86.1578 29.6469 84.1101 29.6226C82.437 29.1409 80.6374 29.0047 79.1977 27.876C77.3883 25.0446 75.8173 24.9035 73.4778 27.3749C73.0352 27.7106 72.6655 28.2215 71.9895 28.0025C71.9117 25.283 74.0663 24.3634 75.9778 24.0278C77.437 23.7699 79.256 24.5386 79.8348 26.4944C80.0829 27.3457 80.8076 27.3944 81.5566 27.516C84.1977 27.9539 86.829 28.4744 89.4603 28.9609C90.1802 29.5545 91.1529 28.8734 91.8825 29.4377C92.5926 29.3891 93.2347 29.6031 93.8475 29.934C94.8349 29.9875 95.8709 29.754 96.7609 30.4205C99.4409 31.2524 102.413 31.554 104.057 34.3271L104.052 34.3223Z" fill="#1A5382"/>
<path d="M71.9846 27.9976C72.3105 27.6911 72.6412 27.3846 72.9671 27.0781C73.3465 27.3116 73.687 27.589 73.9399 27.9538C74.9224 29.5155 76.5323 29.1847 78.0012 29.2869C78.3708 29.3112 78.7259 29.3745 79.081 29.4766C81.5566 30.0799 84.0907 30.4253 86.5323 31.1648C87.1792 31.3594 88.045 31.301 88.0012 32.3519C86.1335 32.5027 84.3679 32.0405 82.6267 31.4275C81.9847 31.6999 81.3475 31.7827 80.7298 31.3691C79.9029 30.6491 78.8767 30.8242 77.9769 30.9459C75.2726 31.3107 73.4049 30.1529 71.9846 27.9976Z" fill="#234D68"/>
<path d="M96.7561 30.4205C95.7785 30.294 94.7035 30.7708 93.8427 29.934C94.9711 29.1458 95.9633 29.1799 96.7561 30.4205Z" fill="#055291"/>
<path d="M91.8825 29.4378C91.0605 29.3502 90.151 29.7199 89.4603 28.961C90.2775 29.0583 91.1918 28.6691 91.8825 29.4378Z" fill="#075197"/>
<path d="M80.7347 31.374C81.367 31.3935 81.9993 31.4129 82.6316 31.4324C81.9848 31.8605 81.333 32.4103 80.7347 31.374Z" fill="#045697"/>
<path d="M72.9185 105.707C73.8621 105.771 74.5819 106.359 75.3699 106.778C76.0119 107.021 76.6539 106.914 77.2911 106.763C78.293 106.34 78.9788 105.279 80.2093 105.328C80.2239 105.566 80.3407 105.858 80.2434 106.043C78.0109 110.334 78.9691 114.611 80.2677 118.892C80.793 119.597 80.0343 120.585 80.7784 121.247C80.9924 121.942 81.2065 122.638 81.4156 123.329C80.2094 125.611 79.008 127.892 77.8018 130.174C77.2424 130.602 76.7755 131.526 76.0703 130.223C74.8689 128.004 73.5459 125.854 72.2716 123.674C72.4759 122.867 72.6802 122.059 72.8796 121.251C73.1228 121.47 73.2784 121.694 72.9331 121.957C73.1179 121.85 73.186 121.684 73.1714 121.48C73.1422 120.96 73.2687 120.424 73.0352 119.918C74.2463 115.17 74.8738 110.422 72.9088 105.703L72.9185 105.707Z" fill="#C13A2C"/>
<path d="M80.7833 121.247C80.3974 121.003 80.2272 120.218 80.2725 118.892C80.7589 119.607 80.793 120.424 80.7833 121.247Z" fill="#9F3133"/>
<path d="M77.2911 106.768C76.6539 107.269 76.0168 108.16 75.3699 106.783C75.5304 106.462 75.6957 106.136 75.8563 105.815C76.1724 105.815 76.4885 105.815 76.8047 105.815C76.8679 106.184 76.8922 106.574 77.2911 106.773V106.768Z" fill="#E8B4A6"/>
<path d="M73.0449 119.923C73.5167 120.458 73.6335 121.203 73.293 121.68C73.006 122.088 73.0401 121.407 72.8893 121.251C72.9428 120.809 72.9914 120.366 73.0449 119.923Z" fill="#A12C28"/>
<path d="M101.1 49.3019C100.954 49.3165 100.813 49.3505 100.672 49.3943C100.185 50.4743 100.822 52.3182 98.7066 52.2939C95.156 53.1161 91.6102 53.9431 88.0596 54.7653C85.1608 54.4394 82.5197 55.607 79.8106 56.293C78.1374 56.7162 76.5324 56.726 74.6598 56.4097C76.7999 55.5292 76.9993 54.1864 76.4935 52.1771C75.973 50.0997 75.8806 47.7888 78.2833 46.4509C84.2464 44.4903 90.4137 43.3178 96.4546 41.654C97.5392 41.3523 98.6141 41.002 99.6939 40.6712C100.19 41.9264 99.7814 43.2205 99.9371 44.3638C100.01 44.1838 99.8593 43.7751 100.185 43.527C100.282 43.527 100.375 43.5416 100.472 43.5513C101.849 44.9038 100.759 46.6747 101.245 48.1732C101.367 48.5672 101.474 48.9662 101.1 49.297V49.3019Z" fill="#075284"/>
<path d="M98.7065 52.2939C100.316 51.9776 99.9322 50.3041 100.672 49.3943C100.686 49.7154 100.706 50.0365 100.72 50.3624C100.72 50.7224 100.73 51.0873 100.735 51.4473C100.38 52.5031 99.5139 52.3279 98.7065 52.2939Z" fill="#264960"/>
<path d="M100.185 43.527V45.3417C100.02 45.3417 99.8592 45.3514 99.6938 45.3563C99.6938 43.7946 99.6938 42.2329 99.6938 40.6712C100.569 41.5031 100.034 42.5735 100.185 43.527Z" fill="#015097"/>
<path d="M101.114 48.4359C100.136 46.9083 100.89 45.152 100.472 43.5514C100.545 43.3713 100.618 43.1865 100.691 43.0065C100.817 43.0746 100.939 43.1427 101.061 43.2157C101.698 43.9357 101.241 44.8066 101.382 45.5947C101.26 46.5385 101.654 47.531 101.114 48.4359Z" fill="#505F63"/>
<path d="M101.182 45.4925C101.328 45.5022 101.474 45.512 101.62 45.5314C101.357 46.7769 102.262 48.1829 101.095 49.3019C101.1 49.0148 101.104 48.7229 101.109 48.4359C101.134 47.4531 101.158 46.4704 101.177 45.4925H101.182Z" fill="#C4A95C"/>
<path d="M98.8476 77.1107C97.0188 80.8762 94.4702 84.1602 91.9507 87.4635C91.4887 87.5949 91.1725 87.8625 91.0801 88.3539C90.4089 88.5874 90.0976 89.1225 89.9031 89.7599C90.7397 89.8085 91.3573 89.4631 91.7756 88.7431C91.9605 88.7479 92.1404 88.7528 92.3253 88.7577C92.4614 88.5582 92.5976 88.3587 92.7338 88.1593C92.7873 88.1593 92.8408 88.1593 92.8992 88.1641C93.6239 87.9549 93.9741 87.3565 94.3291 86.7678C96.7367 84.4812 98.6726 81.8784 99.7475 78.7015C100.346 77.9572 100.642 77.0961 100.701 76.1474C100.798 75.9674 100.589 75.3641 100.686 75.1841C99.514 75.0235 98.9303 75.6998 98.8525 77.1058L98.8476 77.1107Z" fill="#3E2D1C"/>
<path d="M54.0226 63.1138C54.1101 63.4154 54.2609 63.6976 54.3776 63.9846C54.6889 65.9307 53.6578 68.008 54.9321 69.8616C55.686 70.3725 55.973 69.9833 55.9584 69.2632C55.9341 68.1394 55.7979 67.0107 55.7882 65.8869C55.759 61.5424 55.6909 57.1833 58.4584 53.4371C56.221 51.5544 53.4827 51.5641 50.793 51.3987C50.5304 51.4911 50.292 51.6176 50.0732 51.7879C49.9807 52.3084 49.8932 52.8339 49.8008 53.3544C49.7035 54.0891 49.6062 54.8286 49.5089 55.5632C48.9934 56.3757 49.0663 57.266 49.1588 58.1611C48.9837 59.7082 48.8864 61.2553 49.1247 62.8024C49.723 62.384 50.0051 61.7808 50.1169 61.0802C52.9817 60.2239 53.2152 60.3456 54.0129 63.1089L54.0226 63.1138ZM54.3776 63.9846C54.4652 63.9603 54.5528 63.936 54.6403 63.9165C54.6257 63.9749 54.6111 64.0284 54.5965 64.0868C54.4992 64.1111 54.4263 64.0771 54.3776 63.9895V63.9846Z" fill="#3E2D1C"/>
<path d="M61.7853 89.0495C59.6306 85.3082 56.2745 82.3357 54.8251 78.1469C54.2561 76.5122 53.152 75.6462 51.4302 75.5538C53.1763 81.5475 56.474 86.4223 61.7561 89.8668C62.4711 90.3241 62.8748 91.5453 64.0713 90.8009C63.2298 90.2706 62.7435 90.2706 61.7853 89.0544V89.0495Z" fill="#3E2D1C"/>
<path d="M101.372 51.5203C101.245 51.282 101.046 51.1555 100.774 51.1409C99.9663 51.4328 99.1492 51.676 98.2834 51.6858C95.6229 52.3377 92.9478 52.9069 90.2775 53.515C89.4118 53.7096 88.512 53.8361 88.0596 54.7653C86.8388 55.1302 85.6375 55.573 84.3972 55.8405C81.1141 56.546 77.8505 57.913 74.4409 57.0763C72.1744 56.5216 69.8933 56.1227 67.6121 55.6994C66.8436 55.0524 65.9536 55.174 65.0635 55.2956C65.6374 55.8503 66.26 56.2881 67.1257 56.147C68.7697 57.5433 70.8417 58.0055 72.8018 58.672C79.4409 60.944 86.3573 62.0338 93.2056 63.396C95.2922 63.8095 96.5713 64.7777 96.8388 66.9232C96.9848 67.7211 97.1307 68.5238 97.2815 69.3654C98.7747 68.7962 98.1472 67.7697 98.1472 66.9232C98.3126 66.5826 98.478 66.2469 98.6433 65.9064C98.6871 65.4588 98.7309 65.0161 98.7698 64.5685C99.4118 63.1527 99.2367 61.484 100.156 60.1607C100.526 59.8056 100.375 59.3483 100.399 58.925C100.399 58.5504 100.137 58.1855 100.156 57.8158L100.166 57.7184C100.19 57.5968 100.244 57.4703 100.36 57.3487C100.535 57.2855 100.608 57.159 100.584 56.9741C100.676 55.8843 100.37 54.7167 101.187 53.7583C101.547 53.0431 101.323 52.2744 101.372 51.5349V51.5203ZM98.5023 64.043C98.5315 63.9603 98.5704 63.8825 98.6287 63.8095C98.5655 63.8971 98.5315 63.9749 98.5169 64.0528C98.512 64.0528 98.5071 64.043 98.5023 64.043Z" fill="#3E2D1C"/>
<path d="M104.125 57.7573C103.278 55.1788 103.609 52.4982 103.556 49.8564C103.419 49.8613 103.288 49.8565 103.157 49.837C102.962 49.5402 102.773 49.2434 102.578 48.9515C102.588 46.1347 102.52 43.3129 102.636 40.5009C102.695 39.1144 102.072 37.6062 103.142 36.3364C103.123 35.6796 103.108 35.0228 103.089 34.366C102.943 34.3514 102.797 34.3223 102.656 34.2882C101.722 32.1524 99.7813 31.9968 97.8406 31.8508C97.8406 31.8508 97.8407 31.8508 97.8358 31.8508C96.5809 31.2427 95.258 30.9264 93.8572 30.941C92.5683 30.7464 91.2745 30.5567 89.9856 30.3621C89.9856 30.3621 89.9175 30.5372 89.9175 30.5421C89.8932 30.5421 89.8688 30.5421 89.8494 30.5421C89.898 30.4837 89.9418 30.4253 89.9904 30.3669C88.1617 29.3599 86.1723 29.0242 84.1198 28.9415C82.5828 28.2215 80.7783 28.3966 79.3046 27.4771C79.3435 25.8327 78.2735 25.2489 76.8922 25.0008C75.0536 24.6699 73.7793 25.4532 72.9719 27.0879C73.1032 27.4236 73.2297 27.7544 73.361 28.0901C74.0566 30.5226 75.9486 30.1432 77.7579 29.9632C78.0643 29.9729 78.3659 29.9875 78.6723 29.9972C81.7122 31.0821 85.0293 31.0481 88.0109 32.3665C89.0323 32.2351 89.898 33.1838 90.9535 32.7898C93.862 33.6071 97.0527 33.3687 99.6938 35.159C100.812 37.6792 100.53 40.3793 100.696 43.0161C100.832 43.1134 100.958 43.1524 101.08 43.1378C101.075 43.167 101.07 43.1961 101.065 43.2253C101.08 43.4686 101.09 43.7167 101.104 43.96C100.978 44.4416 100.832 44.9233 100.934 45.4244C100.842 46.5677 101.197 47.7596 100.608 48.8542C100.496 49.0634 100.409 49.2872 100.36 49.5207C100.316 49.8856 100.384 50.2116 100.637 50.484C100.394 50.8149 100.423 51.136 100.739 51.4619L100.929 51.3743C101.026 51.4035 101.104 51.4619 101.182 51.5252C101.099 51.4765 101.017 51.4279 100.929 51.3743C100.968 51.749 101.012 52.1236 101.051 52.503C100.832 52.9458 100.657 53.4177 100.423 53.8507C99.864 54.9696 99.9564 56.181 99.9516 57.373C99.9516 57.4752 99.9516 57.5773 99.9516 57.6795C99.9029 57.8644 99.9175 58.0541 99.9662 58.2487C99.9808 58.5698 100.015 58.886 100.102 59.1877C100.122 59.5136 100.136 59.8444 100.156 60.1704C100.321 60.1558 100.487 60.1363 100.652 60.1218C101.007 60.5985 101.532 60.5158 102.024 60.545C102.082 60.4283 102.121 60.3018 102.135 60.1704C103.852 60.2434 104.762 59.7082 104.125 57.7719V57.7573ZM102.987 51.4084C103.016 51.3841 103.045 51.3549 103.079 51.3354C103.079 51.3792 103.079 51.4181 103.069 51.4619C103.04 51.4425 103.011 51.4279 102.987 51.4133V51.4084ZM79.2997 27.4722C79.2754 27.4966 79.2462 27.5209 79.2219 27.5452C79.2122 27.5355 79.2073 27.5257 79.2025 27.516L79.2997 27.4722ZM101.644 51.7927C101.644 51.7927 101.654 51.7976 101.659 51.8025C101.654 51.8025 101.649 51.8073 101.639 51.8122C101.639 51.8073 101.639 51.7976 101.639 51.7927H101.644Z" fill="#F4AF30"/>
</svg>
