<svg width="22" height="16" viewBox="0 0 22 16" fill="none" xmlns="http://www.w3.org/2000/svg">
<path d="M14.5801 8.00001C14.5801 9.65001 12.9801 10.9833 11.0001 10.9833C9.02009 10.9833 7.42009 9.65001 7.42009 8.00001C7.42009 6.35001 9.02009 5.01667 11.0001 5.01667C12.9801 5.01667 14.5801 6.35001 14.5801 8.00001Z" stroke="white" stroke-width="1.5" stroke-linecap="round" stroke-linejoin="round"/>
<path d="M11.0001 14.8917C14.5301 14.8917 17.8201 13.1583 20.1101 10.1583C21.0101 8.98334 21.0101 7.00834 20.1101 5.83334C17.8201 2.83334 14.5301 1.10001 11.0001 1.10001C7.47009 1.10001 4.18009 2.83334 1.89009 5.83334C0.990088 7.00834 0.990088 8.98334 1.89009 10.1583C4.18009 13.1583 7.47009 14.8917 11.0001 14.8917Z" stroke="white" stroke-width="1.5" stroke-linecap="round" stroke-linejoin="round"/>
</svg>
