<svg width="36" height="29" viewBox="0 0 36 29" fill="none" xmlns="http://www.w3.org/2000/svg">
<path d="M21.795 11.443L14.205 17.5572M21.795 11.443C20.82 10.6576 19.485 10.1742 18 10.1742C15.03 10.1742 12.63 12.1076 12.63 14.5001C12.63 15.6963 13.23 16.7717 14.205 17.5572M21.795 11.443L33 2.41675M14.205 17.5572L3 26.5834M26.73 6.97216C24.105 5.37716 21.105 4.50716 18 4.50716C12.705 4.50716 7.77 7.0205 4.335 11.3705C2.985 13.0742 2.985 15.938 4.335 17.6417C5.52 19.1401 6.9 20.433 8.4 21.4722M12.63 23.5988C14.34 24.1788 16.155 24.493 18 24.493C23.295 24.493 28.23 21.9797 31.665 17.6297C33.015 15.9259 33.015 13.0622 31.665 11.3584C31.17 10.7301 30.63 10.138 30.075 9.58216M23.265 15.3459C22.875 17.0497 21.15 18.4392 19.035 18.7534" stroke="white" stroke-width="2" stroke-linecap="round" stroke-linejoin="round"/>
</svg>
