<svg width="150" height="46" viewBox="0 0 150 46" fill="none" xmlns="http://www.w3.org/2000/svg">
<path d="M69.736 37V11.8H72.616L83.092 29.044H81.22L91.696 11.8H94.576V37H90.436V19.072L91.372 19.324L83.596 32.104H80.716L72.94 19.324L73.876 19.072V37H69.736ZM100.617 37V19.72H104.577V37H100.617ZM102.597 16.552C101.925 16.552 101.361 16.324 100.905 15.868C100.473 15.412 100.257 14.848 100.257 14.176C100.257 13.504 100.473 12.94 100.905 12.484C101.361 12.028 101.925 11.8 102.597 11.8C103.293 11.8 103.857 12.028 104.289 12.484C104.721 12.94 104.937 13.504 104.937 14.176C104.937 14.848 104.721 15.412 104.289 15.868C103.857 16.324 103.293 16.552 102.597 16.552ZM110.638 37V11.8H114.778V37H110.638ZM113.482 37V33.22H126.658V37H113.482ZM138.294 37.36C136.614 37.36 135.09 36.964 133.722 36.172C132.354 35.356 131.262 34.264 130.446 32.896C129.654 31.528 129.258 30.004 129.258 28.324C129.258 26.644 129.654 25.132 130.446 23.788C131.262 22.444 132.354 21.376 133.722 20.584C135.09 19.768 136.614 19.36 138.294 19.36C139.998 19.36 141.534 19.756 142.902 20.548C144.27 21.34 145.35 22.42 146.142 23.788C146.958 25.132 147.366 26.644 147.366 28.324C147.366 30.004 146.958 31.528 146.142 32.896C145.35 34.264 144.27 35.356 142.902 36.172C141.534 36.964 139.998 37.36 138.294 37.36ZM138.294 33.544C139.278 33.544 140.142 33.328 140.886 32.896C141.654 32.44 142.242 31.816 142.65 31.024C143.082 30.232 143.298 29.332 143.298 28.324C143.298 27.316 143.082 26.428 142.65 25.66C142.218 24.892 141.63 24.292 140.886 23.86C140.142 23.404 139.278 23.176 138.294 23.176C137.334 23.176 136.47 23.404 135.702 23.86C134.958 24.292 134.37 24.892 133.938 25.66C133.53 26.428 133.326 27.316 133.326 28.324C133.326 29.332 133.53 30.232 133.938 31.024C134.37 31.816 134.958 32.44 135.702 32.896C136.47 33.328 137.334 33.544 138.294 33.544Z" fill="white"/>
<g clip-path="url(#clip0_401_569)">
<path fill-rule="evenodd" clip-rule="evenodd" d="M51 0.0330811L46.8151 3.56645L41.9594 7.66823V45.8605L43.0931 44.9035L49.9978 39.0728L51 38.2274V35.6345L50.9285 35.5539L51 35.4929V0.0330811Z" fill="url(#paint0_linear_401_569)"/>
<path fill-rule="evenodd" clip-rule="evenodd" d="M31.052 16.8546L25.4508 21.966L19.8496 16.8546L17.6226 14.9737L0 0V11.8196L11.6507 21.749L18.5523 27.5797L19.8496 28.6742L25.4446 33.3981V33.4084L25.4508 33.4033L25.457 33.4084V33.3981L31.052 28.6742L32.3493 27.5797L37.5436 23.1917V11.3721L33.278 14.9737L31.052 16.8546Z" fill="url(#paint1_linear_401_569)"/>
<path fill-rule="evenodd" clip-rule="evenodd" d="M0 38.2946L4.06787 41.9013L9.04062 46V25.3227L0 17.64V38.2946Z" fill="url(#paint2_linear_401_569)"/>
<path fill-rule="evenodd" clip-rule="evenodd" d="M0 38.2946L4.06787 41.9013L9.04062 46V25.3227L0 17.64V38.2946Z" fill="url(#paint3_linear_401_569)"/>
<path fill-rule="evenodd" clip-rule="evenodd" d="M31.052 16.8546L25.4508 21.966L19.8496 16.8546L17.6226 14.9737L0 0V11.8196L11.6507 21.749L18.5523 27.5797L19.8496 28.6742L25.4446 33.3981V33.4084L25.4508 33.4033L25.457 33.4084V33.3981L31.052 28.6742L32.3493 27.5797L37.5436 23.1917V11.3721L33.278 14.9737L31.052 16.8546Z" fill="url(#paint4_linear_401_569)"/>
<path fill-rule="evenodd" clip-rule="evenodd" d="M51 0.0330811L46.8151 3.56645L41.9594 7.66823V45.8605L43.0931 44.9035L49.9978 39.0728L51 38.2274V35.6345L50.9285 35.5539L51 35.4929V0.0330811Z" fill="url(#paint5_linear_401_569)"/>
</g>
<defs>
<linearGradient id="paint0_linear_401_569" x1="46.8286" y1="7.15977" x2="45.8806" y2="50.2217" gradientUnits="userSpaceOnUse">
<stop stop-color="#21ABDB"/>
<stop offset="1" stop-color="#6327C9"/>
</linearGradient>
<linearGradient id="paint1_linear_401_569" x1="18.8836" y1="6.54485" x2="17.9356" y2="49.6068" gradientUnits="userSpaceOnUse">
<stop offset="0.23" stop-color="#21ABDB"/>
<stop offset="0.98" stop-color="#6327C9"/>
</linearGradient>
<linearGradient id="paint2_linear_401_569" x1="5.08561" y1="6.24104" x2="4.1376" y2="49.303" gradientUnits="userSpaceOnUse">
<stop offset="0.29" stop-color="#21ABDB"/>
<stop offset="1" stop-color="#6327C9"/>
</linearGradient>
<linearGradient id="paint3_linear_401_569" x1="5.08561" y1="6.2369" x2="4.1376" y2="49.2989" gradientUnits="userSpaceOnUse">
<stop offset="0.23"/>
<stop offset="0.3" stop-opacity="0.54"/>
<stop offset="0.7" stop-opacity="0"/>
</linearGradient>
<linearGradient id="paint4_linear_401_569" x1="63.0887" y1="18.6011" x2="-15.3682" y2="15.6346" gradientUnits="userSpaceOnUse">
<stop offset="0.22"/>
<stop offset="0.48" stop-opacity="0"/>
<stop offset="0.67" stop-opacity="0"/>
<stop offset="0.7" stop-opacity="0"/>
<stop offset="0.95" stop-opacity="0.9"/>
</linearGradient>
<linearGradient id="paint5_linear_401_569" x1="31.4755" y1="1.24222" x2="44.976" y2="20.8441" gradientUnits="userSpaceOnUse">
<stop offset="0.26"/>
<stop offset="0.32" stop-opacity="0.75"/>
<stop offset="0.9" stop-opacity="0"/>
</linearGradient>
<clipPath id="clip0_401_569">
<rect width="51" height="46" fill="white"/>
</clipPath>
</defs>
</svg>
