<svg width="30" height="28" viewBox="0 0 30 28" fill="none" xmlns="http://www.w3.org/2000/svg">
<g clip-path="url(#clip0_379_488)">
<path d="M20.3686 28L19.8201 27.9096C19.2146 27.8062 19.0391 27.7761 16.222 22.3897H6.36244C2.85213 22.3897 0 19.591 0 16.1464V6.24327C0 2.79871 2.85213 0 6.36244 0H16.8934C17.4989 0 17.9903 0.482239 17.9903 1.07643C17.9903 1.67061 17.4989 2.15285 16.8934 2.15285H6.36244C4.06319 2.15285 2.19394 3.98708 2.19394 6.24327V16.1464C2.19394 18.4026 4.06319 20.2368 6.36244 20.2368H17.5647L17.8719 20.8224C18.4116 21.8558 18.9952 22.9494 19.4998 23.8751C19.6534 22.9623 19.8245 21.9203 19.9824 20.93L20.1843 19.6426L21.4348 20.0818C21.4348 20.0818 22.9355 20.5727 23.9842 19.7589C25.0812 18.9107 25.5156 16.8784 25.2348 13.873C25.1821 13.2788 25.6253 12.7578 26.2264 12.7018C26.8319 12.6459 27.3629 13.085 27.4199 13.6749C27.7753 17.5113 27.0689 20.1335 25.3137 21.4682C24.186 22.3251 22.9004 22.437 21.9702 22.3552C21.1935 27.2379 21.075 27.3412 20.7679 27.6254L20.3686 27.9914V28Z" fill="white"/>
<path d="M22.3344 15.0398C21.7289 15.0398 21.2374 14.5576 21.2374 13.9634V1.07643C21.2374 0.482239 21.7289 0 22.3344 0C22.9399 0 23.4314 0.482239 23.4314 1.07643V13.9634C23.4314 14.5576 22.9399 15.0398 22.3344 15.0398Z" fill="white"/>
<path d="M28.903 8.59426H15.7701C15.1645 8.59426 14.6731 8.11202 14.6731 7.51783C14.6731 6.92364 15.1645 6.44141 15.7701 6.44141H28.903C29.5086 6.44141 30 6.92364 30 7.51783C30 8.11202 29.5086 8.59426 28.903 8.59426Z" fill="white"/>
</g>
<defs>
<clipPath id="clip0_379_488">
<rect width="30" height="28" fill="white"/>
</clipPath>
</defs>
</svg>
