<svg width="756" height="465" viewBox="0 0 756 465" fill="none" xmlns="http://www.w3.org/2000/svg">
<path d="M57.6655 324.029C57.6655 145.075 202.741 0 381.695 0C560.649 0 705.724 145.075 705.724 324.029" fill="#21ABDB"/>
<path d="M272.993 121.521C272.993 145.991 252.659 167.287 227.582 167.287C202.504 167.287 182.17 145.991 182.17 121.521C182.17 97.0507 202.504 77.2222 227.582 77.2222C252.659 77.2222 272.993 97.0586 272.993 121.521Z" fill="white"/>
<path d="M202.646 303.277C198.557 303.285 194.46 303.293 190.371 303.301C188.943 303.443 188.785 303.175 188.382 304.998C187.845 307.39 187.806 309.774 188.422 312.15C188.824 314.068 189.053 314.723 190.206 316.531C191.042 317.573 191.871 318.622 193.087 320.146C190.206 320.146 187.916 320.146 185.619 320.146C157.1 320.098 128.581 320.043 100.069 319.996C80.9355 320.051 61.7937 320.059 42.6598 320.201C40.1891 320.217 36.3687 319.767 36.3687 323.272C36.3687 326.674 40.2681 325.932 42.5888 325.932C267.317 325.987 492.046 325.987 716.775 325.979C718.093 325.979 719.411 326.019 720.722 325.932C722.419 325.821 723.445 324.882 723.453 323.145C723.453 321.448 722.537 320.391 720.816 320.241C719.514 320.13 718.188 320.162 716.878 320.154C696.283 320.075 674.829 320.098 654.234 320.019C653.658 320.091 654.811 320.019 654.234 320.019C624.807 320.035 594.52 320.146 565.101 320.138C564.453 320.138 563.609 320.383 563.293 319.143C569.158 315.686 567.153 309.221 567.295 303.79C566.585 303.672 567.335 304.722 567.295 303.79C562.622 303.735 557.515 303.514 552.842 303.467M411.761 303.443C410.877 304.817 409.993 306.19 409.117 307.564C407.672 308.574 405.975 308.7 404.318 308.984C387.567 308.905 370.81 308.661 354.059 308.85C349.379 308.905 344.461 307.579 342.503 303.372" fill="#213C84"/>
<path d="M752.351 319.648C745.949 319.522 739.548 319.545 733.146 319.64C731.212 319.672 729.697 320.721 729.783 322.861C729.87 325 731.386 325.781 733.391 325.773C736.446 325.765 739.5 325.773 742.563 325.773C745.768 325.773 748.965 325.789 752.169 325.773C754.001 325.765 755.335 324.929 755.508 323.042C755.69 320.887 754.277 319.687 752.351 319.648Z" fill="#213C84"/>
<path d="M23.8022 319.554C17.1243 319.593 10.4385 319.593 3.76054 319.577C1.59772 319.57 -0.0836116 320.169 0.00321723 322.68C0.074259 324.945 1.70033 325.45 3.65004 325.434C6.989 325.403 10.328 325.427 13.6748 325.419C17.0138 325.411 20.3606 325.379 23.6996 325.427C25.744 325.458 27.2596 324.677 27.2754 322.553C27.2832 320.493 25.9019 319.546 23.8022 319.554Z" fill="#213C84"/>
<path d="M268.833 97.0825C268.225 95.9064 267.191 94.7618 266.512 93.8304C258.122 82.44 246.858 75.9673 232.878 73.9624C202.188 69.5578 174.387 97.3746 178.539 128.049C180.031 139.037 184.617 148.059 191.777 156.379C201.083 164.777 211.66 170.263 224.408 171.116C228.189 171.369 231.899 170.011 235.649 170.99C235.672 169.04 236.691 166.924 234.678 165.322C233.841 165.527 232.973 165.654 232.176 165.954C229.886 166.814 228.963 166.111 229.042 163.641C229.152 160.16 229.437 156.616 228.971 153.19C228.316 148.312 230.273 146.583 234.867 147.08C236.659 145.888 235.349 144.617 234.962 143.37C229.073 143.118 229.066 143.118 229.066 137.016C229.066 133.677 229.073 130.338 229.089 126.991C229.097 125.815 229.058 124.394 230.723 124.489C234.441 124.702 238.222 123.66 241.877 125.065C253.259 123.589 264.689 124.402 276.103 124.323C275.898 114.456 273.317 105.844 268.833 97.0825ZM235.049 79.922C241.964 83.5136 246.108 89.5205 249.51 97.0746C242.311 97.0746 235.688 97.0746 229.073 97.0746C229.026 90.965 228.971 84.8555 228.923 78.738C231.26 77.5382 233.225 78.9827 235.049 79.922ZM199.978 124.236C208.156 124.292 216.325 124.355 224.503 124.41C224.574 129.746 224.621 135.09 224.724 140.426C224.756 142.107 224.298 143.315 222.348 143.228C216.61 142.968 210.011 143.867 205.227 143.26C204.817 143.244 204.509 143.173 204.201 143.165C203.475 143.054 203.191 143.362 202.827 142.581C200.594 136.976 199.504 131.183 199.883 125.136C199.915 124.836 199.946 124.536 199.978 124.236ZM199.978 124.236C200.507 124.063 201.036 123.936 201.572 123.81C201.044 123.936 200.507 124.055 199.978 124.236ZM202.425 123.621C203.783 123.368 205.148 123.25 206.514 123.218C205.148 123.242 203.783 123.368 202.425 123.621ZM215.662 120.187C214.494 120.187 213.326 120.187 212.158 120.187C208.945 120.179 205.732 120.092 202.527 120.211C200.167 120.305 199.354 119.287 199.694 117.085C199.717 116.943 199.717 116.793 199.725 116.651C200.199 102.324 201.051 101.487 215.212 101.479C224.771 101.479 224.764 101.479 224.771 111.03C224.764 120.187 224.764 120.187 215.662 120.187ZM221.732 78.7301C224.006 77.9012 224.803 78.2802 224.811 80.8455C224.811 85.629 224.669 89.2285 224.874 94.0593C224.732 94.7145 224.819 96.4984 224.669 97.1536C218.125 97.1536 211.589 97.1536 204.382 97.1536C208.337 88.7864 212.986 81.9269 221.732 78.7301ZM207.895 82.5742C205.109 86.8288 202.22 90.9335 200.404 95.6459C199.607 97.714 197.87 97.1773 196.363 97.2246C194.634 97.2799 192.905 97.2404 190.332 97.2404C195.1 90.2862 200.83 85.6843 207.895 82.5742ZM182.754 116.603C183.567 112.301 184.554 108.07 186.362 104.06C187.048 102.537 187.83 101.542 189.843 101.408C197.791 100.887 197.783 100.785 196.497 108.56C196.189 110.423 195.834 112.285 195.644 114.164C195.044 120.211 195.068 120.211 188.848 120.218C187.83 120.218 186.796 120.132 185.785 120.234C182.936 120.518 182.257 119.224 182.754 116.603ZM185.485 138.634C184.262 134.893 183.275 131.127 182.66 127.244C182.328 125.136 183.023 124.213 185.162 124.418C185.454 124.441 185.746 124.426 186.038 124.418C194.516 124.189 194.516 124.189 195.905 132.398C196.221 134.253 196.505 136.124 196.915 137.963C198.099 143.268 198.123 143.268 191.871 143.299C188.469 143.086 186.646 142.178 185.485 138.634ZM193.655 151.508C192.668 150.474 192.053 149.417 191.106 148.059C190.979 147.893 190.853 147.735 190.719 147.57C190.908 147.53 191.106 147.498 191.295 147.459C191.871 147.459 192.582 147.467 193.032 147.467C197.736 147.27 200.254 147.617 201.959 152.219C203.183 155.526 205.622 158.384 208.179 162.52C201.904 159.544 197.397 156.063 193.655 151.508ZM218.496 164.47C212.213 161.431 208.519 155.779 205.385 149.764C204.28 147.633 205.274 147.246 207.129 147.27C209.75 147.301 212.363 147.277 214.983 147.277C224.724 147.238 224.724 147.238 224.724 157.026C224.724 158.336 224.677 159.639 224.732 160.949C224.992 167.611 224.361 167.303 218.496 164.47ZM251.546 120.155C244.876 119.958 238.198 119.934 231.528 119.84C229.926 120.274 229.026 119.879 229.05 118C229.105 113.335 229.137 108.662 229.058 103.997C229.026 102.087 229.792 101.424 231.631 101.44C237.33 101.495 243.029 101.55 248.728 101.432C252.075 101.361 251.854 103.76 252.201 105.868C253.583 109.428 253.717 113.225 254.254 116.943C254.538 118.987 254.056 120.234 251.546 120.155ZM251.791 92.0228C250.228 88.8811 248.215 86.0711 244.955 82.6216C253.583 85.2028 258.429 90.5467 263.11 96.4195C256.188 98.4481 254.72 97.8877 251.791 92.0228ZM264.089 120.132C260.071 121.221 258.327 119.255 258.232 114.527C258.169 111.086 257.245 107.612 256.385 104.234C255.801 101.945 256.511 101.55 258.635 101.456C266.536 101.1 266.899 101.274 269.291 108.899C269.725 110.288 270.033 111.717 270.372 113.13C272.054 120.076 272.006 120.132 264.089 120.132Z" fill="#213C84"/>
<path d="M536.25 298.194H228.426C224.7 298.194 221.685 295.179 221.685 291.453V111.181C221.685 107.455 224.7 104.439 228.426 104.439H536.25C539.976 104.439 542.991 107.455 542.991 111.181V291.445C542.991 295.179 539.976 298.194 536.25 298.194Z" fill="#213C84"/>
<path d="M522.049 284.522H242.619C240.858 284.522 239.43 283.094 239.43 281.333V122.082C239.43 120.321 240.858 118.893 242.619 118.893H522.049C523.81 118.893 525.238 120.321 525.238 122.082V281.333C525.238 283.094 523.81 284.522 522.049 284.522Z" stroke="#0D101E" stroke-width="5" stroke-miterlimit="10"/>
<path d="M521.047 281.096H243.882C243.542 281.096 243.258 280.82 243.258 280.473V122.941C243.258 122.602 243.534 122.318 243.882 122.318H521.039C521.379 122.318 521.663 122.594 521.663 122.941V280.48C521.663 280.82 521.387 281.096 521.047 281.096Z" fill="white"/>
<path d="M328.137 236.711V224.397C328.137 223.308 327.253 222.424 326.164 222.424H300.084C298.994 222.424 298.11 221.54 298.11 220.45V209.849C298.11 209.4 298.26 208.965 298.544 208.618L332.116 166.838C332.487 166.372 333.055 166.104 333.655 166.104H340.506C341.596 166.104 342.48 166.988 342.48 168.077V206.463C342.48 207.552 343.364 208.437 344.453 208.437H347.397C348.487 208.437 349.371 209.321 349.371 210.41V220.466C349.371 221.556 348.487 222.44 347.397 222.44H344.453C343.364 222.44 342.48 223.324 342.48 224.413V236.727C342.48 237.816 341.596 238.7 340.506 238.7H330.111C329.013 238.685 328.137 237.8 328.137 236.711ZM328.208 206.487L328.35 194.102C328.374 192.239 326.045 191.394 324.861 192.823L314.655 205.208C313.597 206.495 314.513 208.429 316.179 208.429H326.251C327.324 208.436 328.2 207.568 328.208 206.487Z" fill="url(#paint0_linear_154_37)"/>
<path d="M356.238 202.903C356.199 199.967 356.357 197.007 356.72 194.015C357.075 191.023 357.683 188.158 358.527 185.411C359.372 182.664 360.453 180.099 361.772 177.707C363.09 175.315 364.7 173.247 366.595 171.503C368.497 169.75 370.683 168.369 373.17 167.358C375.656 166.34 378.474 165.835 381.632 165.835C384.789 165.835 387.615 166.34 390.094 167.358C392.58 168.377 394.759 169.758 396.637 171.503C398.516 173.255 400.118 175.323 401.437 177.707C402.755 180.099 403.828 182.664 404.657 185.411C405.486 188.158 406.086 191.015 406.465 193.991C406.844 196.959 407.025 199.935 407.025 202.903C407.025 205.839 406.836 208.792 406.465 211.767C406.086 214.743 405.486 217.601 404.657 220.348C403.828 223.095 402.755 225.676 401.437 228.083C400.118 230.491 398.524 232.583 396.637 234.343C394.759 236.111 392.572 237.5 390.094 238.519C387.607 239.537 384.789 240.042 381.632 240.042C378.474 240.042 375.648 239.537 373.17 238.519C370.691 237.5 368.497 236.119 366.595 234.374C364.692 232.622 363.082 230.554 361.772 228.17C360.453 225.778 359.372 223.205 358.527 220.434C357.683 217.672 357.075 214.799 356.72 211.831C356.357 208.847 356.199 205.871 356.238 202.903ZM372.041 202.903C372.041 211.373 372.83 217.601 374.409 221.611C375.988 225.621 378.395 227.618 381.632 227.618C384.907 227.618 387.331 225.597 388.91 221.547C390.488 217.506 391.278 211.286 391.278 202.895C391.278 194.465 390.488 188.221 388.91 184.156C387.331 180.091 384.9 178.062 381.632 178.062C378.395 178.062 375.988 180.075 374.409 184.101C372.83 188.134 372.041 194.402 372.041 202.903Z" fill="url(#paint1_linear_154_37)"/>
<path d="M442.301 236.711V224.397C442.301 223.308 441.417 222.424 440.328 222.424H414.248C413.158 222.424 412.274 221.54 412.274 220.45V209.849C412.274 209.4 412.424 208.965 412.708 208.618L446.279 166.838C446.65 166.372 447.219 166.104 447.819 166.104H454.67C455.76 166.104 456.644 166.988 456.644 168.077V206.463C456.644 207.552 457.528 208.437 458.617 208.437H461.561C462.651 208.437 463.535 209.321 463.535 210.41V220.466C463.535 221.556 462.651 222.44 461.561 222.44H458.617C457.528 222.44 456.644 223.324 456.644 224.413V236.727C456.644 237.816 455.76 238.7 454.67 238.7H444.275C443.177 238.685 442.301 237.8 442.301 236.711ZM442.38 206.487L442.522 194.102C442.546 192.239 440.217 191.394 439.033 192.823L428.827 205.208C427.769 206.495 428.685 208.429 430.35 208.429H440.423C441.488 208.436 442.364 207.568 442.38 206.487Z" fill="url(#paint2_linear_154_37)"/>
<path d="M328.137 236.711V224.397C328.137 223.308 327.253 222.424 326.164 222.424H300.084C298.994 222.424 298.11 221.54 298.11 220.45V209.849C298.11 209.4 298.26 208.965 298.544 208.618L332.116 166.838C332.487 166.372 333.055 166.104 333.655 166.104H340.506C341.596 166.104 342.48 166.988 342.48 168.077V206.463C342.48 207.552 343.364 208.437 344.453 208.437H347.397C348.487 208.437 349.371 209.321 349.371 210.41V220.466C349.371 221.556 348.487 222.44 347.397 222.44H344.453C343.364 222.44 342.48 223.324 342.48 224.413V236.727C342.48 237.816 341.596 238.7 340.506 238.7H330.111C329.013 238.685 328.137 237.8 328.137 236.711ZM328.208 206.487L328.35 194.102C328.374 192.239 326.045 191.394 324.861 192.823L314.655 205.208C313.597 206.495 314.513 208.429 316.179 208.429H326.251C327.324 208.436 328.2 207.568 328.208 206.487Z" fill="url(#paint3_linear_154_37)"/>
<path d="M356.238 202.903C356.199 199.967 356.357 197.007 356.72 194.015C357.075 191.023 357.683 188.158 358.527 185.411C359.372 182.664 360.453 180.099 361.772 177.707C363.09 175.315 364.7 173.247 366.595 171.503C368.497 169.75 370.683 168.369 373.17 167.358C375.656 166.34 378.474 165.835 381.632 165.835C384.789 165.835 387.615 166.34 390.094 167.358C392.58 168.377 394.759 169.758 396.637 171.503C398.516 173.255 400.118 175.323 401.437 177.707C402.755 180.099 403.828 182.664 404.657 185.411C405.486 188.158 406.086 191.015 406.465 193.991C406.844 196.959 407.025 199.935 407.025 202.903C407.025 205.839 406.836 208.792 406.465 211.767C406.086 214.743 405.486 217.601 404.657 220.348C403.828 223.095 402.755 225.676 401.437 228.083C400.118 230.491 398.524 232.583 396.637 234.343C394.759 236.111 392.572 237.5 390.094 238.519C387.607 239.537 384.789 240.042 381.632 240.042C378.474 240.042 375.648 239.537 373.17 238.519C370.691 237.5 368.497 236.119 366.595 234.374C364.692 232.622 363.082 230.554 361.772 228.17C360.453 225.778 359.372 223.205 358.527 220.434C357.683 217.672 357.075 214.799 356.72 211.831C356.357 208.847 356.199 205.871 356.238 202.903ZM372.041 202.903C372.041 211.373 372.83 217.601 374.409 221.611C375.988 225.621 378.395 227.618 381.632 227.618C384.907 227.618 387.331 225.597 388.91 221.547C390.488 217.506 391.278 211.286 391.278 202.895C391.278 194.465 390.488 188.221 388.91 184.156C387.331 180.091 384.9 178.062 381.632 178.062C378.395 178.062 375.988 180.075 374.409 184.101C372.83 188.134 372.041 194.402 372.041 202.903Z" fill="url(#paint4_linear_154_37)"/>
<path d="M442.301 236.711V224.397C442.301 223.308 441.417 222.424 440.328 222.424H414.248C413.158 222.424 412.274 221.54 412.274 220.45V209.849C412.274 209.4 412.424 208.965 412.708 208.618L446.279 166.838C446.65 166.372 447.219 166.104 447.819 166.104H454.67C455.76 166.104 456.644 166.988 456.644 168.077V206.463C456.644 207.552 457.528 208.437 458.617 208.437H461.561C462.651 208.437 463.535 209.321 463.535 210.41V220.466C463.535 221.556 462.651 222.44 461.561 222.44H458.617C457.528 222.44 456.644 223.324 456.644 224.413V236.727C456.644 237.816 455.76 238.7 454.67 238.7H444.275C443.177 238.685 442.301 237.8 442.301 236.711ZM442.38 206.487L442.522 194.102C442.546 192.239 440.217 191.394 439.033 192.823L428.827 205.208C427.769 206.495 428.685 208.429 430.35 208.429H440.423C441.488 208.436 442.364 207.568 442.38 206.487Z" fill="url(#paint5_linear_154_37)"/>
<path d="M523.463 256.452C521.134 256.452 518.774 256.255 516.398 255.837C505.639 253.958 496.254 247.998 489.978 239.055C483.703 230.112 481.279 219.266 483.158 208.507C485.037 197.748 490.996 188.363 499.94 182.088C508.875 175.812 519.729 173.389 530.488 175.268C541.247 177.146 550.632 183.106 556.907 192.049C563.183 200.993 565.606 211.838 563.727 222.597C560.262 242.434 542.952 256.452 523.463 256.452ZM523.368 180.177C516.161 180.177 509.136 182.38 503.113 186.611C495.385 192.041 490.231 200.156 488.597 209.462C486.971 218.769 489.063 228.154 494.493 235.882C499.924 243.61 508.039 248.764 517.345 250.398C536.558 253.753 554.918 240.863 558.281 221.65C559.907 212.343 557.815 202.958 552.384 195.23C546.954 187.502 538.839 182.348 529.533 180.714C527.48 180.351 525.42 180.177 523.368 180.177Z" fill="#191E33"/>
<path d="M596.486 276.368C595.704 276.368 594.915 276.108 594.252 275.579L553.742 242.844C552.219 241.613 551.982 239.371 553.213 237.848C554.445 236.324 556.686 236.087 558.21 237.319L598.719 270.053C600.243 271.285 600.48 273.526 599.248 275.05C598.546 275.918 597.52 276.368 596.486 276.368Z" fill="#191E33"/>
<path d="M219.44 404.328V399.528H227.84C228.992 399.528 230 399.304 230.864 398.856C231.76 398.376 232.464 397.72 232.976 396.888C233.488 396.024 233.744 395.016 233.744 393.864C233.744 392.712 233.488 391.72 232.976 390.888C232.464 390.024 231.76 389.368 230.864 388.92C230 388.44 228.992 388.2 227.84 388.2H219.44V383.4H228.128C230.24 383.4 232.128 383.832 233.792 384.696C235.488 385.56 236.816 386.776 237.776 388.344C238.768 389.912 239.264 391.752 239.264 393.864C239.264 395.976 238.768 397.816 237.776 399.384C236.816 400.952 235.488 402.168 233.792 403.032C232.128 403.896 230.24 404.328 228.128 404.328H219.44ZM215.648 417V383.4H221.168V417H215.648ZM252.373 417.48C250.293 417.48 248.405 416.952 246.709 415.896C245.045 414.84 243.717 413.416 242.725 411.624C241.765 409.8 241.285 407.768 241.285 405.528C241.285 403.256 241.765 401.224 242.725 399.432C243.717 397.608 245.045 396.168 246.709 395.112C248.405 394.024 250.293 393.48 252.373 393.48C254.133 393.48 255.685 393.864 257.029 394.632C258.405 395.368 259.493 396.392 260.293 397.704C261.093 399.016 261.493 400.504 261.493 402.168V408.792C261.493 410.456 261.093 411.944 260.293 413.256C259.525 414.568 258.453 415.608 257.077 416.376C255.701 417.112 254.133 417.48 252.373 417.48ZM253.237 412.488C255.189 412.488 256.757 411.832 257.941 410.52C259.157 409.208 259.765 407.528 259.765 405.48C259.765 404.104 259.493 402.888 258.949 401.832C258.405 400.776 257.637 399.96 256.645 399.384C255.685 398.776 254.549 398.472 253.237 398.472C251.957 398.472 250.821 398.776 249.829 399.384C248.869 399.96 248.101 400.776 247.525 401.832C246.981 402.888 246.709 404.104 246.709 405.48C246.709 406.856 246.981 408.072 247.525 409.128C248.101 410.184 248.869 411.016 249.829 411.624C250.821 412.2 251.957 412.488 253.237 412.488ZM259.429 417V410.808L260.341 405.192L259.429 399.624V393.96H264.709V417H259.429ZM280.169 427.08C277.737 427.08 275.609 426.632 273.785 425.736C271.961 424.872 270.489 423.64 269.369 422.04L272.825 418.584C273.753 419.736 274.809 420.6 275.993 421.176C277.177 421.752 278.601 422.04 280.265 422.04C282.345 422.04 283.993 421.496 285.209 420.408C286.425 419.352 287.033 417.896 287.033 416.04V410.376L287.945 405.288L287.033 400.152V393.96H292.313V416.04C292.313 418.248 291.801 420.168 290.777 421.8C289.753 423.464 288.329 424.76 286.505 425.688C284.681 426.616 282.569 427.08 280.169 427.08ZM279.929 416.52C277.881 416.52 276.025 416.024 274.361 415.032C272.729 414.008 271.433 412.616 270.473 410.856C269.545 409.096 269.081 407.128 269.081 404.952C269.081 402.776 269.545 400.824 270.473 399.096C271.433 397.368 272.729 396.008 274.361 395.016C276.025 393.992 277.881 393.48 279.929 393.48C281.753 393.48 283.353 393.848 284.729 394.584C286.105 395.32 287.177 396.344 287.945 397.656C288.713 398.936 289.097 400.44 289.097 402.168V407.832C289.097 409.528 288.697 411.032 287.897 412.344C287.129 413.656 286.057 414.68 284.681 415.416C283.305 416.152 281.721 416.52 279.929 416.52ZM280.985 411.528C282.265 411.528 283.385 411.256 284.345 410.712C285.305 410.168 286.041 409.416 286.553 408.456C287.097 407.464 287.369 406.312 287.369 405C287.369 403.688 287.097 402.552 286.553 401.592C286.041 400.6 285.305 399.832 284.345 399.288C283.385 398.744 282.265 398.472 280.985 398.472C279.705 398.472 278.569 398.744 277.577 399.288C276.617 399.832 275.865 400.6 275.321 401.592C274.777 402.552 274.505 403.688 274.505 405C274.505 406.28 274.777 407.416 275.321 408.408C275.865 409.4 276.617 410.168 277.577 410.712C278.569 411.256 279.705 411.528 280.985 411.528ZM308.882 417.48C306.578 417.48 304.498 416.968 302.642 415.944C300.818 414.888 299.362 413.448 298.274 411.624C297.218 409.8 296.69 407.752 296.69 405.48C296.69 403.208 297.218 401.176 298.274 399.384C299.33 397.56 300.754 396.12 302.546 395.064C304.37 394.008 306.386 393.48 308.594 393.48C310.738 393.48 312.626 393.976 314.258 394.968C315.922 395.96 317.218 397.32 318.146 399.048C319.106 400.776 319.586 402.744 319.586 404.952C319.586 405.336 319.554 405.736 319.49 406.152C319.458 406.536 319.394 406.968 319.298 407.448H300.386V403.128H316.562L314.594 404.856C314.53 403.448 314.258 402.264 313.778 401.304C313.298 400.344 312.61 399.608 311.714 399.096C310.85 398.584 309.778 398.328 308.498 398.328C307.154 398.328 305.986 398.616 304.994 399.192C304.002 399.768 303.234 400.584 302.69 401.64C302.146 402.664 301.874 403.896 301.874 405.336C301.874 406.776 302.162 408.04 302.738 409.128C303.314 410.216 304.13 411.064 305.186 411.672C306.242 412.248 307.458 412.536 308.834 412.536C310.018 412.536 311.106 412.328 312.098 411.912C313.122 411.496 313.986 410.888 314.69 410.088L318.05 413.496C316.93 414.808 315.57 415.8 313.97 416.472C312.37 417.144 310.674 417.48 308.882 417.48ZM349.22 417V403.704C349.22 402.168 348.724 400.904 347.732 399.912C346.772 398.92 345.524 398.424 343.988 398.424C342.964 398.424 342.052 398.648 341.252 399.096C340.452 399.544 339.828 400.168 339.38 400.968C338.932 401.768 338.708 402.68 338.708 403.704L336.644 402.552C336.644 400.792 337.028 399.24 337.796 397.896C338.564 396.52 339.62 395.448 340.964 394.68C342.34 393.88 343.876 393.48 345.572 393.48C347.3 393.48 348.836 393.928 350.18 394.824C351.524 395.688 352.58 396.824 353.348 398.232C354.116 399.608 354.5 401.048 354.5 402.552V417H349.22ZM333.428 417V393.96H338.708V417H333.428ZM370.426 417.48C368.186 417.48 366.154 416.952 364.33 415.896C362.506 414.808 361.05 413.352 359.962 411.528C358.906 409.704 358.378 407.672 358.378 405.432C358.378 403.192 358.906 401.176 359.962 399.384C361.05 397.592 362.506 396.168 364.33 395.112C366.154 394.024 368.186 393.48 370.426 393.48C372.698 393.48 374.746 394.008 376.57 395.064C378.394 396.12 379.834 397.56 380.89 399.384C381.978 401.176 382.522 403.192 382.522 405.432C382.522 407.672 381.978 409.704 380.89 411.528C379.834 413.352 378.394 414.808 376.57 415.896C374.746 416.952 372.698 417.48 370.426 417.48ZM370.426 412.392C371.738 412.392 372.89 412.104 373.882 411.528C374.906 410.92 375.69 410.088 376.234 409.032C376.81 407.976 377.098 406.776 377.098 405.432C377.098 404.088 376.81 402.904 376.234 401.88C375.658 400.856 374.874 400.056 373.882 399.48C372.89 398.872 371.738 398.568 370.426 398.568C369.146 398.568 367.994 398.872 366.97 399.48C365.978 400.056 365.194 400.856 364.618 401.88C364.074 402.904 363.802 404.088 363.802 405.432C363.802 406.776 364.074 407.976 364.618 409.032C365.194 410.088 365.978 410.92 366.97 411.528C367.994 412.104 369.146 412.392 370.426 412.392ZM389.76 417V384.36H395.04V417H389.76ZM384.24 398.76V393.96H400.56V398.76H384.24ZM414.726 417V383.4H420.246V417H414.726ZM418.518 402.6V397.56H435.606V402.6H418.518ZM418.518 388.44V383.4H436.422V388.44H418.518ZM450.863 417.48C448.623 417.48 446.591 416.952 444.767 415.896C442.943 414.808 441.487 413.352 440.399 411.528C439.343 409.704 438.815 407.672 438.815 405.432C438.815 403.192 439.343 401.176 440.399 399.384C441.487 397.592 442.943 396.168 444.767 395.112C446.591 394.024 448.623 393.48 450.863 393.48C453.135 393.48 455.183 394.008 457.007 395.064C458.831 396.12 460.271 397.56 461.327 399.384C462.415 401.176 462.959 403.192 462.959 405.432C462.959 407.672 462.415 409.704 461.327 411.528C460.271 413.352 458.831 414.808 457.007 415.896C455.183 416.952 453.135 417.48 450.863 417.48ZM450.863 412.392C452.175 412.392 453.327 412.104 454.319 411.528C455.343 410.92 456.127 410.088 456.671 409.032C457.247 407.976 457.535 406.776 457.535 405.432C457.535 404.088 457.247 402.904 456.671 401.88C456.095 400.856 455.311 400.056 454.319 399.48C453.327 398.872 452.175 398.568 450.863 398.568C449.583 398.568 448.431 398.872 447.407 399.48C446.415 400.056 445.631 400.856 445.055 401.88C444.511 402.904 444.239 404.088 444.239 405.432C444.239 406.776 444.511 407.976 445.055 409.032C445.631 410.088 446.415 410.92 447.407 411.528C448.431 412.104 449.583 412.392 450.863 412.392ZM476.806 417.48C474.854 417.48 473.11 417.048 471.574 416.184C470.07 415.32 468.886 414.136 468.022 412.632C467.19 411.096 466.774 409.336 466.774 407.352V393.96H472.054V407.112C472.054 408.232 472.23 409.192 472.582 409.992C472.966 410.76 473.51 411.352 474.214 411.768C474.95 412.184 475.814 412.392 476.806 412.392C478.342 412.392 479.51 411.944 480.31 411.048C481.142 410.12 481.558 408.808 481.558 407.112V393.96H486.838V407.352C486.838 409.368 486.406 411.144 485.542 412.68C484.71 414.184 483.542 415.368 482.038 416.232C480.534 417.064 478.79 417.48 476.806 417.48ZM507.939 417V403.704C507.939 402.168 507.443 400.904 506.451 399.912C505.491 398.92 504.243 398.424 502.707 398.424C501.683 398.424 500.771 398.648 499.971 399.096C499.171 399.544 498.547 400.168 498.099 400.968C497.651 401.768 497.427 402.68 497.427 403.704L495.363 402.552C495.363 400.792 495.747 399.24 496.515 397.896C497.283 396.52 498.339 395.448 499.683 394.68C501.059 393.88 502.595 393.48 504.291 393.48C506.019 393.48 507.555 393.928 508.899 394.824C510.243 395.688 511.299 396.824 512.067 398.232C512.835 399.608 513.219 401.048 513.219 402.552V417H507.939ZM492.147 417V393.96H497.427V417H492.147ZM528.232 417.48C526.152 417.48 524.264 416.952 522.568 415.896C520.904 414.84 519.576 413.416 518.584 411.624C517.624 409.8 517.144 407.768 517.144 405.528C517.144 403.256 517.624 401.224 518.584 399.432C519.576 397.608 520.904 396.168 522.568 395.112C524.264 394.024 526.152 393.48 528.232 393.48C529.992 393.48 531.544 393.864 532.888 394.632C534.264 395.368 535.352 396.392 536.152 397.704C536.952 399.016 537.352 400.504 537.352 402.168V408.792C537.352 410.456 536.952 411.944 536.152 413.256C535.384 414.568 534.312 415.608 532.936 416.376C531.56 417.112 529.992 417.48 528.232 417.48ZM529.096 412.488C530.408 412.488 531.544 412.2 532.504 411.624C533.496 411.016 534.264 410.184 534.808 409.128C535.352 408.072 535.624 406.856 535.624 405.48C535.624 404.104 535.352 402.888 534.808 401.832C534.264 400.776 533.496 399.96 532.504 399.384C531.544 398.776 530.408 398.472 529.096 398.472C527.816 398.472 526.68 398.776 525.688 399.384C524.728 399.96 523.96 400.776 523.384 401.832C522.84 402.888 522.568 404.104 522.568 405.48C522.568 406.856 522.84 408.072 523.384 409.128C523.96 410.184 524.728 411.016 525.688 411.624C526.68 412.2 527.816 412.488 529.096 412.488ZM540.568 417H535.288V410.808L536.2 405.192L535.288 399.624V382.44H540.568V417Z" fill="white"/>
<path d="M221.744 459L228.56 442.344H230.192L236.984 459H234.536L228.944 444.912H229.784L224.144 459H221.744ZM224.984 455.232V453.264H233.744V455.232H224.984ZM243.416 459.24C242.376 459.24 241.432 458.984 240.584 458.472C239.736 457.944 239.064 457.232 238.568 456.336C238.088 455.44 237.848 454.432 237.848 453.312C237.848 452.192 238.088 451.184 238.568 450.288C239.064 449.392 239.728 448.68 240.56 448.152C241.408 447.624 242.36 447.36 243.416 447.36C244.28 447.36 245.048 447.544 245.72 447.912C246.408 448.264 246.96 448.76 247.376 449.4C247.792 450.024 248.024 450.752 248.072 451.584V455.016C248.024 455.832 247.792 456.56 247.376 457.2C246.976 457.84 246.432 458.344 245.744 458.712C245.072 459.064 244.296 459.24 243.416 459.24ZM243.776 457.2C244.848 457.2 245.712 456.84 246.368 456.12C247.024 455.384 247.352 454.448 247.352 453.312C247.352 452.528 247.2 451.848 246.896 451.272C246.608 450.68 246.192 450.224 245.648 449.904C245.104 449.568 244.472 449.4 243.752 449.4C243.032 449.4 242.392 449.568 241.832 449.904C241.288 450.24 240.856 450.704 240.536 451.296C240.232 451.872 240.08 452.536 240.08 453.288C240.08 454.056 240.232 454.736 240.536 455.328C240.856 455.904 241.296 456.36 241.856 456.696C242.416 457.032 243.056 457.2 243.776 457.2ZM247.208 459V455.928L247.616 453.144L247.208 450.384V447.6H249.392V459H247.208ZM257.385 459.24C256.345 459.24 255.401 458.984 254.553 458.472C253.705 457.944 253.033 457.232 252.537 456.336C252.057 455.44 251.817 454.432 251.817 453.312C251.817 452.192 252.057 451.184 252.537 450.288C253.033 449.392 253.697 448.68 254.529 448.152C255.377 447.624 256.329 447.36 257.385 447.36C258.249 447.36 259.017 447.544 259.689 447.912C260.377 448.264 260.929 448.76 261.345 449.4C261.761 450.024 261.993 450.752 262.041 451.584V455.016C261.993 455.832 261.761 456.56 261.345 457.2C260.945 457.84 260.401 458.344 259.713 458.712C259.041 459.064 258.265 459.24 257.385 459.24ZM257.745 457.2C258.817 457.2 259.681 456.84 260.337 456.12C260.993 455.384 261.321 454.448 261.321 453.312C261.321 452.528 261.169 451.848 260.865 451.272C260.577 450.68 260.161 450.224 259.617 449.904C259.073 449.568 258.441 449.4 257.721 449.4C257.001 449.4 256.361 449.568 255.801 449.904C255.257 450.24 254.825 450.704 254.505 451.296C254.201 451.872 254.049 452.536 254.049 453.288C254.049 454.056 254.201 454.736 254.505 455.328C254.825 455.904 255.265 456.36 255.825 456.696C256.385 457.032 257.025 457.2 257.745 457.2ZM261.177 459V455.928L261.585 453.144L261.177 450.384V447.6H263.361V459H261.177ZM274.57 459V452.352C274.57 451.488 274.298 450.776 273.754 450.216C273.21 449.656 272.506 449.376 271.642 449.376C271.066 449.376 270.554 449.504 270.106 449.76C269.658 450.016 269.306 450.368 269.05 450.816C268.794 451.264 268.666 451.776 268.666 452.352L267.778 451.848C267.778 450.984 267.97 450.216 268.354 449.544C268.738 448.872 269.274 448.344 269.962 447.96C270.65 447.56 271.426 447.36 272.29 447.36C273.154 447.36 273.914 447.552 274.57 447.936C275.242 448.32 275.77 448.856 276.154 449.544C276.538 450.232 276.73 451.024 276.73 451.92V459H274.57ZM266.506 459V441.864H268.666V459H266.506ZM280.302 453.72L279.99 441.864H282.294L281.982 453.72H280.302ZM281.118 459.24C280.67 459.24 280.302 459.088 280.014 458.784C279.726 458.48 279.582 458.104 279.582 457.656C279.582 457.208 279.726 456.84 280.014 456.552C280.302 456.248 280.67 456.096 281.118 456.096C281.582 456.096 281.958 456.248 282.246 456.552C282.534 456.84 282.678 457.208 282.678 457.656C282.678 458.104 282.534 458.48 282.246 458.784C281.958 459.088 281.582 459.24 281.118 459.24ZM295.92 459.24C294.608 459.24 293.488 459 292.56 458.52C291.632 458.04 290.808 457.344 290.088 456.432L291.624 454.896C292.152 455.632 292.76 456.192 293.448 456.576C294.136 456.944 294.984 457.128 295.992 457.128C296.984 457.128 297.776 456.912 298.368 456.48C298.976 456.048 299.28 455.456 299.28 454.704C299.28 454.08 299.136 453.576 298.848 453.192C298.56 452.808 298.168 452.496 297.672 452.256C297.192 452 296.664 451.776 296.088 451.584C295.512 451.376 294.936 451.16 294.36 450.936C293.784 450.696 293.256 450.408 292.776 450.072C292.296 449.72 291.904 449.264 291.6 448.704C291.312 448.144 291.168 447.44 291.168 446.592C291.168 445.648 291.392 444.848 291.84 444.192C292.304 443.52 292.928 443.008 293.712 442.656C294.512 442.288 295.408 442.104 296.4 442.104C297.488 442.104 298.464 442.32 299.328 442.752C300.192 443.168 300.896 443.72 301.44 444.408L299.904 445.944C299.408 445.368 298.872 444.936 298.296 444.648C297.736 444.36 297.088 444.216 296.352 444.216C295.456 444.216 294.744 444.416 294.216 444.816C293.688 445.2 293.424 445.744 293.424 446.448C293.424 447.008 293.568 447.464 293.856 447.816C294.16 448.152 294.552 448.44 295.032 448.68C295.512 448.92 296.04 449.144 296.616 449.352C297.208 449.544 297.792 449.76 298.368 450C298.944 450.24 299.472 450.544 299.952 450.912C300.432 451.28 300.816 451.76 301.104 452.352C301.408 452.928 301.56 453.656 301.56 454.536C301.56 456.008 301.048 457.16 300.024 457.992C299.016 458.824 297.648 459.24 295.92 459.24ZM309.261 459.24C308.141 459.24 307.133 458.976 306.237 458.448C305.341 457.92 304.629 457.208 304.101 456.312C303.573 455.4 303.309 454.384 303.309 453.264C303.309 452.16 303.573 451.168 304.101 450.288C304.629 449.392 305.341 448.68 306.237 448.152C307.133 447.624 308.141 447.36 309.261 447.36C310.365 447.36 311.365 447.624 312.261 448.152C313.173 448.664 313.893 449.368 314.421 450.264C314.949 451.16 315.213 452.16 315.213 453.264C315.213 454.384 314.949 455.4 314.421 456.312C313.893 457.208 313.173 457.92 312.261 458.448C311.365 458.976 310.365 459.24 309.261 459.24ZM309.261 457.152C309.981 457.152 310.621 456.984 311.181 456.648C311.741 456.312 312.181 455.856 312.501 455.28C312.821 454.688 312.981 454.016 312.981 453.264C312.981 452.528 312.813 451.872 312.477 451.296C312.157 450.72 311.717 450.272 311.157 449.952C310.613 449.616 309.981 449.448 309.261 449.448C308.541 449.448 307.901 449.616 307.341 449.952C306.781 450.272 306.341 450.72 306.021 451.296C305.701 451.872 305.541 452.528 305.541 453.264C305.541 454.016 305.701 454.688 306.021 455.28C306.341 455.856 306.781 456.312 307.341 456.648C307.901 456.984 308.541 457.152 309.261 457.152ZM317.646 459V447.6H319.807V459H317.646ZM325.351 459V452.112C325.351 451.264 325.087 450.6 324.559 450.12C324.047 449.624 323.399 449.376 322.615 449.376C322.087 449.376 321.615 449.488 321.199 449.712C320.783 449.936 320.447 450.248 320.191 450.648C319.935 451.048 319.807 451.528 319.807 452.088L318.919 451.656C318.919 450.792 319.103 450.04 319.471 449.4C319.855 448.76 320.375 448.264 321.031 447.912C321.687 447.544 322.423 447.36 323.239 447.36C324.039 447.36 324.759 447.536 325.399 447.888C326.055 448.24 326.567 448.736 326.935 449.376C327.319 450.016 327.511 450.776 327.511 451.656V459H325.351ZM333.055 459V452.112C333.055 451.264 332.791 450.6 332.263 450.12C331.751 449.624 331.111 449.376 330.343 449.376C329.815 449.376 329.335 449.488 328.903 449.712C328.487 449.936 328.151 450.248 327.895 450.648C327.639 451.048 327.511 451.528 327.511 452.088L326.287 451.656C326.335 450.776 326.567 450.024 326.983 449.4C327.415 448.76 327.967 448.264 328.639 447.912C329.311 447.544 330.047 447.36 330.847 447.36C331.679 447.36 332.423 447.536 333.079 447.888C333.735 448.24 334.255 448.736 334.639 449.376C335.039 450.016 335.239 450.784 335.239 451.68V459H333.055ZM343.458 459.24C342.322 459.24 341.298 458.984 340.386 458.472C339.474 457.944 338.754 457.232 338.226 456.336C337.698 455.44 337.434 454.424 337.434 453.288C337.434 452.168 337.69 451.16 338.202 450.264C338.73 449.368 339.434 448.664 340.314 448.152C341.21 447.624 342.21 447.36 343.314 447.36C344.37 447.36 345.298 447.6 346.098 448.08C346.914 448.56 347.546 449.224 347.994 450.072C348.458 450.92 348.69 451.88 348.69 452.952C348.69 453.112 348.682 453.288 348.666 453.48C348.65 453.656 348.618 453.864 348.57 454.104H338.946V452.304H347.418L346.626 453C346.626 452.232 346.49 451.584 346.218 451.056C345.946 450.512 345.562 450.096 345.066 449.808C344.57 449.504 343.97 449.352 343.266 449.352C342.53 449.352 341.882 449.512 341.322 449.832C340.762 450.152 340.33 450.6 340.026 451.176C339.722 451.752 339.57 452.432 339.57 453.216C339.57 454.016 339.73 454.72 340.05 455.328C340.37 455.92 340.826 456.384 341.418 456.72C342.01 457.04 342.69 457.2 343.458 457.2C344.098 457.2 344.682 457.088 345.21 456.864C345.754 456.64 346.218 456.304 346.602 455.856L347.994 457.272C347.45 457.912 346.778 458.4 345.978 458.736C345.194 459.072 344.354 459.24 343.458 459.24ZM352.445 459V442.824H354.605V459H352.445ZM349.637 449.568V447.6H357.413V449.568H349.637ZM367.593 459V452.352C367.593 451.488 367.321 450.776 366.777 450.216C366.233 449.656 365.529 449.376 364.665 449.376C364.089 449.376 363.577 449.504 363.129 449.76C362.681 450.016 362.329 450.368 362.073 450.816C361.817 451.264 361.689 451.776 361.689 452.352L360.801 451.848C360.801 450.984 360.993 450.216 361.377 449.544C361.761 448.872 362.297 448.344 362.985 447.96C363.673 447.56 364.449 447.36 365.313 447.36C366.177 447.36 366.937 447.552 367.593 447.936C368.265 448.32 368.793 448.856 369.177 449.544C369.561 450.232 369.753 451.024 369.753 451.92V459H367.593ZM359.529 459V441.864H361.689V459H359.529ZM372.702 459V447.6H374.862V459H372.702ZM373.782 445.32C373.382 445.32 373.054 445.192 372.798 444.936C372.542 444.664 372.414 444.328 372.414 443.928C372.414 443.544 372.542 443.224 372.798 442.968C373.054 442.696 373.382 442.56 373.782 442.56C374.182 442.56 374.51 442.696 374.766 442.968C375.022 443.224 375.15 443.544 375.15 443.928C375.15 444.328 375.022 444.664 374.766 444.936C374.51 445.192 374.182 445.32 373.782 445.32ZM386.109 459V452.352C386.109 451.488 385.837 450.776 385.293 450.216C384.749 449.656 384.045 449.376 383.181 449.376C382.605 449.376 382.093 449.504 381.645 449.76C381.197 450.016 380.845 450.368 380.589 450.816C380.333 451.264 380.205 451.776 380.205 452.352L379.317 451.848C379.317 450.984 379.509 450.216 379.893 449.544C380.277 448.872 380.813 448.344 381.501 447.96C382.189 447.56 382.965 447.36 383.829 447.36C384.693 447.36 385.453 447.576 386.109 448.008C386.781 448.44 387.309 449.008 387.693 449.712C388.077 450.4 388.269 451.136 388.269 451.92V459H386.109ZM378.045 459V447.6H380.205V459H378.045ZM395.921 464.016C394.753 464.016 393.713 463.8 392.801 463.368C391.905 462.936 391.185 462.328 390.641 461.544L392.033 460.128C392.497 460.72 393.049 461.168 393.689 461.472C394.329 461.792 395.089 461.952 395.969 461.952C397.137 461.952 398.057 461.64 398.729 461.016C399.417 460.408 399.761 459.584 399.761 458.544V455.712L400.145 453.144L399.761 450.6V447.6H401.921V458.544C401.921 459.632 401.665 460.584 401.153 461.4C400.657 462.216 399.953 462.856 399.041 463.32C398.145 463.784 397.105 464.016 395.921 464.016ZM395.921 458.808C394.881 458.808 393.945 458.56 393.113 458.064C392.297 457.568 391.649 456.888 391.169 456.024C390.689 455.144 390.449 454.16 390.449 453.072C390.449 451.984 390.689 451.016 391.169 450.168C391.649 449.304 392.297 448.624 393.113 448.128C393.945 447.616 394.881 447.36 395.921 447.36C396.817 447.36 397.609 447.536 398.297 447.888C398.985 448.24 399.529 448.736 399.929 449.376C400.345 450 400.569 450.736 400.601 451.584V454.608C400.553 455.44 400.321 456.176 399.905 456.816C399.505 457.44 398.961 457.928 398.273 458.28C397.585 458.632 396.801 458.808 395.921 458.808ZM396.353 456.768C397.057 456.768 397.673 456.616 398.201 456.312C398.745 456.008 399.161 455.584 399.449 455.04C399.737 454.48 399.881 453.832 399.881 453.096C399.881 452.36 399.729 451.72 399.425 451.176C399.137 450.616 398.729 450.184 398.201 449.88C397.673 449.56 397.049 449.4 396.329 449.4C395.609 449.4 394.977 449.56 394.433 449.88C393.889 450.184 393.457 450.616 393.137 451.176C392.833 451.72 392.681 452.352 392.681 453.072C392.681 453.792 392.833 454.432 393.137 454.992C393.457 455.552 393.889 455.992 394.433 456.312C394.993 456.616 395.633 456.768 396.353 456.768ZM413.348 459L408.836 447.6H411.092L414.356 456.48H413.636L416.876 447.6H418.124L421.364 456.48H420.644L423.908 447.6H426.164L421.676 459H420.404L417.116 450.384H417.908L414.596 459H413.348ZM433.036 459.24C431.9 459.24 430.876 458.984 429.964 458.472C429.052 457.944 428.332 457.232 427.804 456.336C427.276 455.44 427.012 454.424 427.012 453.288C427.012 452.168 427.268 451.16 427.78 450.264C428.308 449.368 429.012 448.664 429.892 448.152C430.788 447.624 431.788 447.36 432.892 447.36C433.948 447.36 434.876 447.6 435.676 448.08C436.492 448.56 437.124 449.224 437.572 450.072C438.036 450.92 438.268 451.88 438.268 452.952C438.268 453.112 438.26 453.288 438.244 453.48C438.228 453.656 438.196 453.864 438.148 454.104H428.524V452.304H436.996L436.204 453C436.204 452.232 436.068 451.584 435.796 451.056C435.524 450.512 435.14 450.096 434.644 449.808C434.148 449.504 433.548 449.352 432.844 449.352C432.108 449.352 431.46 449.512 430.9 449.832C430.34 450.152 429.908 450.6 429.604 451.176C429.3 451.752 429.148 452.432 429.148 453.216C429.148 454.016 429.308 454.72 429.628 455.328C429.948 455.92 430.404 456.384 430.996 456.72C431.588 457.04 432.268 457.2 433.036 457.2C433.676 457.2 434.26 457.088 434.788 456.864C435.332 456.64 435.796 456.304 436.18 455.856L437.572 457.272C437.028 457.912 436.356 458.4 435.556 458.736C434.772 459.072 433.932 459.24 433.036 459.24ZM448.687 459V452.352C448.687 451.488 448.415 450.776 447.871 450.216C447.327 449.656 446.623 449.376 445.759 449.376C445.183 449.376 444.671 449.504 444.223 449.76C443.775 450.016 443.423 450.368 443.167 450.816C442.911 451.264 442.783 451.776 442.783 452.352L441.895 451.848C441.895 450.984 442.087 450.216 442.471 449.544C442.855 448.872 443.391 448.344 444.079 447.96C444.767 447.56 445.543 447.36 446.407 447.36C447.271 447.36 448.031 447.576 448.687 448.008C449.359 448.44 449.887 449.008 450.271 449.712C450.655 450.4 450.847 451.136 450.847 451.92V459H448.687ZM440.623 459V447.6H442.783V459H440.623ZM455.383 459V442.824H457.543V459H455.383ZM452.575 449.568V447.6H460.351V449.568H452.575ZM470.723 459L466.211 447.6H468.467L471.731 456.48H471.011L474.251 447.6H475.499L478.739 456.48H478.019L481.283 447.6H483.539L479.051 459H477.779L474.491 450.384H475.283L471.971 459H470.723ZM485.459 459V447.6H487.619V459H485.459ZM487.619 452.496L486.803 452.136C486.803 450.68 487.139 449.52 487.811 448.656C488.483 447.792 489.451 447.36 490.715 447.36C491.291 447.36 491.811 447.464 492.275 447.672C492.739 447.864 493.171 448.192 493.571 448.656L492.155 450.12C491.915 449.864 491.651 449.68 491.363 449.568C491.075 449.456 490.739 449.4 490.355 449.4C489.555 449.4 488.899 449.656 488.387 450.168C487.875 450.68 487.619 451.456 487.619 452.496ZM499.925 459.24C498.805 459.24 497.797 458.976 496.901 458.448C496.005 457.92 495.293 457.208 494.765 456.312C494.237 455.4 493.973 454.384 493.973 453.264C493.973 452.16 494.237 451.168 494.765 450.288C495.293 449.392 496.005 448.68 496.901 448.152C497.797 447.624 498.805 447.36 499.925 447.36C501.029 447.36 502.029 447.624 502.925 448.152C503.837 448.664 504.557 449.368 505.085 450.264C505.613 451.16 505.877 452.16 505.877 453.264C505.877 454.384 505.613 455.4 505.085 456.312C504.557 457.208 503.837 457.92 502.925 458.448C502.029 458.976 501.029 459.24 499.925 459.24ZM499.925 457.152C500.645 457.152 501.285 456.984 501.845 456.648C502.405 456.312 502.845 455.856 503.165 455.28C503.485 454.688 503.645 454.016 503.645 453.264C503.645 452.528 503.477 451.872 503.141 451.296C502.821 450.72 502.381 450.272 501.821 449.952C501.277 449.616 500.645 449.448 499.925 449.448C499.205 449.448 498.565 449.616 498.005 449.952C497.445 450.272 497.005 450.72 496.685 451.296C496.365 451.872 496.205 452.528 496.205 453.264C496.205 454.016 496.365 454.688 496.685 455.28C497.005 455.856 497.445 456.312 498.005 456.648C498.565 456.984 499.205 457.152 499.925 457.152ZM516.375 459V452.352C516.375 451.488 516.103 450.776 515.559 450.216C515.015 449.656 514.311 449.376 513.447 449.376C512.871 449.376 512.359 449.504 511.911 449.76C511.463 450.016 511.111 450.368 510.855 450.816C510.599 451.264 510.471 451.776 510.471 452.352L509.583 451.848C509.583 450.984 509.775 450.216 510.159 449.544C510.543 448.872 511.079 448.344 511.767 447.96C512.455 447.56 513.231 447.36 514.095 447.36C514.959 447.36 515.719 447.576 516.375 448.008C517.047 448.44 517.575 449.008 517.959 449.712C518.343 450.4 518.535 451.136 518.535 451.92V459H516.375ZM508.311 459V447.6H510.471V459H508.311ZM526.187 464.016C525.019 464.016 523.979 463.8 523.067 463.368C522.171 462.936 521.451 462.328 520.907 461.544L522.299 460.128C522.763 460.72 523.315 461.168 523.955 461.472C524.595 461.792 525.355 461.952 526.235 461.952C527.403 461.952 528.323 461.64 528.995 461.016C529.683 460.408 530.027 459.584 530.027 458.544V455.712L530.411 453.144L530.027 450.6V447.6H532.187V458.544C532.187 459.632 531.931 460.584 531.419 461.4C530.923 462.216 530.219 462.856 529.307 463.32C528.411 463.784 527.371 464.016 526.187 464.016ZM526.187 458.808C525.147 458.808 524.211 458.56 523.379 458.064C522.563 457.568 521.915 456.888 521.435 456.024C520.955 455.144 520.715 454.16 520.715 453.072C520.715 451.984 520.955 451.016 521.435 450.168C521.915 449.304 522.563 448.624 523.379 448.128C524.211 447.616 525.147 447.36 526.187 447.36C527.083 447.36 527.875 447.536 528.563 447.888C529.251 448.24 529.795 448.736 530.195 449.376C530.611 450 530.835 450.736 530.867 451.584V454.608C530.819 455.44 530.587 456.176 530.171 456.816C529.771 457.44 529.227 457.928 528.539 458.28C527.851 458.632 527.067 458.808 526.187 458.808ZM526.619 456.768C527.323 456.768 527.939 456.616 528.467 456.312C529.011 456.008 529.427 455.584 529.715 455.04C530.003 454.48 530.147 453.832 530.147 453.096C530.147 452.36 529.995 451.72 529.691 451.176C529.403 450.616 528.995 450.184 528.467 449.88C527.939 449.56 527.315 449.4 526.595 449.4C525.875 449.4 525.243 449.56 524.699 449.88C524.155 450.184 523.723 450.616 523.403 451.176C523.099 451.72 522.947 452.352 522.947 453.072C522.947 453.792 523.099 454.432 523.403 454.992C523.723 455.552 524.155 455.992 524.699 456.312C525.259 456.616 525.899 456.768 526.619 456.768Z" fill="white"/>
<defs>
<linearGradient id="paint0_linear_154_37" x1="281.704" y1="203.517" x2="502.833" y2="199.034" gradientUnits="userSpaceOnUse">
<stop offset="0.1333" stop-color="#21ABDB"/>
<stop offset="0.8786" stop-color="#6327C9"/>
</linearGradient>
<linearGradient id="paint1_linear_154_37" x1="281.733" y1="204.956" x2="502.862" y2="200.473" gradientUnits="userSpaceOnUse">
<stop offset="0.1333" stop-color="#21ABDB"/>
<stop offset="0.8786" stop-color="#6327C9"/>
</linearGradient>
<linearGradient id="paint2_linear_154_37" x1="281.75" y1="205.83" x2="502.88" y2="201.347" gradientUnits="userSpaceOnUse">
<stop offset="0.1333" stop-color="#21ABDB"/>
<stop offset="0.8786" stop-color="#6327C9"/>
</linearGradient>
<linearGradient id="paint3_linear_154_37" x1="281.704" y1="203.517" x2="502.833" y2="199.034" gradientUnits="userSpaceOnUse">
<stop offset="0.1333" stop-color="#21ABDB"/>
<stop offset="0.8786" stop-color="#6327C9"/>
</linearGradient>
<linearGradient id="paint4_linear_154_37" x1="281.733" y1="204.956" x2="502.862" y2="200.473" gradientUnits="userSpaceOnUse">
<stop offset="0.1333" stop-color="#21ABDB"/>
<stop offset="0.8786" stop-color="#6327C9"/>
</linearGradient>
<linearGradient id="paint5_linear_154_37" x1="281.75" y1="205.83" x2="502.88" y2="201.347" gradientUnits="userSpaceOnUse">
<stop offset="0.1333" stop-color="#21ABDB"/>
<stop offset="0.8786" stop-color="#6327C9"/>
</linearGradient>
</defs>
</svg>
