<svg width="43" height="43" viewBox="0 0 43 43" fill="none" xmlns="http://www.w3.org/2000/svg">
<g clip-path="url(#clip0_193_149)">
<path d="M21.3636 42.7273C33.1624 42.7273 42.7273 33.1624 42.7273 21.3636C42.7273 9.56483 33.1624 0 21.3636 0C9.56483 0 0 9.56483 0 21.3636C0 33.1624 9.56483 42.7273 21.3636 42.7273Z" fill="white"/>
<path d="M11.2963 27.927C10.4281 27.927 9.72736 27.2262 9.72736 26.3581V16.3692C9.72736 15.5011 10.4281 14.8003 11.2963 14.8003C12.1644 14.8003 12.8652 15.5011 12.8652 16.3692V26.3581C12.8652 27.2262 12.1644 27.927 11.2963 27.927Z" fill="#213C84"/>
<path d="M18.3565 34.255C17.4883 34.255 16.7875 33.5542 16.7875 32.686V10.0411C16.7875 9.17296 17.4883 8.47217 18.3565 8.47217C19.2246 8.47217 19.9254 9.17296 19.9254 10.0411V32.686C19.9254 33.5542 19.2246 34.255 18.3565 34.255Z" fill="#213C84"/>
<path d="M25.4167 29.4855C24.5486 29.4855 23.8478 28.7847 23.8478 27.9166V14.8055C23.8478 13.9374 24.5486 13.2366 25.4167 13.2366C26.2849 13.2366 26.9856 13.9374 26.9856 14.8055V27.9166C26.9856 28.7847 26.2849 29.4855 25.4167 29.4855Z" fill="#213C84"/>
<path d="M32.4769 25.5683C31.6087 25.5683 30.908 24.8675 30.908 23.9993V18.7225C30.908 17.8544 31.6087 17.1536 32.4769 17.1536C33.345 17.1536 34.0458 17.8544 34.0458 18.7225V23.9993C34.0458 24.8675 33.345 25.5683 32.4769 25.5683Z" fill="#213C84"/>
</g>
<defs>
<clipPath id="clip0_193_149">
<rect width="42.7273" height="42.7273" fill="white"/>
</clipPath>
</defs>
</svg>
