<svg width="50" height="50" viewBox="0 0 50 50" fill="none" xmlns="http://www.w3.org/2000/svg">
<circle cx="25" cy="25" r="25" fill="white"/>
<g clip-path="url(#clip0_49_5285)">
<path d="M25.0049 38.7063C20.2283 38.7063 15.4517 38.7034 10.6751 38.7102C10.0532 38.7111 9.49521 38.5894 9.17935 38.1352C8.99548 37.8712 8.88999 37.532 8.88769 37.2263C8.86636 34.3568 8.87501 31.4872 8.87501 28.6177C8.87558 23.6065 8.87847 18.5952 8.87097 13.584C8.8704 13.0708 9.01853 12.6109 9.56784 12.3502C9.88774 12.1988 10.2993 12.1126 10.6699 12.1107C14.3502 12.0939 18.0305 12.1006 21.7108 12.1006C27.5837 12.1006 33.4572 12.103 39.3301 12.0968C39.952 12.0963 40.51 12.2185 40.8253 12.6722C41.0086 12.9362 41.1135 13.2754 41.1152 13.5821C41.1325 15.9212 41.1112 18.2603 41.1112 20.5994C41.1112 23.1772 41.1244 25.7554 41.1273 28.3331C41.1302 31.275 41.1285 34.2164 41.1273 37.1582C41.1273 38.2104 40.5284 38.7063 39.2586 38.7068C34.5074 38.7073 29.7556 38.7068 25.0043 38.7068L25.0049 38.7063ZM17.9262 14.2452V19.5286H38.5272V14.2452H17.9262ZM17.9112 23.7799H38.5156V21.6995H17.9118V23.7799H17.9112ZM38.5301 25.9672H17.9233V28.0485H38.5301V25.9672ZM17.9198 32.3046H38.5174V30.2151H17.9198V32.3046ZM38.5278 34.4698H17.9256V36.5536H38.5278V34.4698ZM15.3093 14.2505H11.4809V19.5233H15.3093V14.2505ZM11.474 23.7766H15.303V21.6914H11.474V23.7766ZM15.3036 25.9619H11.489V28.0523H15.3036V25.9619ZM11.4855 30.2108V32.3032H15.2949V30.2108H11.4855ZM15.2995 36.5641V34.4689H11.4797V36.5641H15.3001H15.2995Z" fill="url(#paint0_linear_49_5285)"/>
<path d="M27.9122 15.8172C29.9031 15.8172 31.894 15.8139 33.8848 15.8187C34.8301 15.8211 35.4307 16.3515 35.3022 17.0544C35.2204 17.5014 34.8065 17.8531 34.2647 17.9259C34.1166 17.9455 33.9638 17.9518 33.8134 17.9518C29.8697 17.9532 25.9254 17.9537 21.9817 17.9518C21.1655 17.9518 20.6686 17.659 20.5182 17.1023C20.366 16.5388 20.8024 15.971 21.49 15.8551C21.6733 15.8244 21.8652 15.8187 22.0531 15.8182C24.006 15.8158 25.9594 15.8168 27.9122 15.8168V15.8172Z" fill="url(#paint1_linear_49_5285)"/>
</g>
<defs>
<linearGradient id="paint0_linear_49_5285" x1="6.59593" y1="41.3473" x2="33.957" y2="7.0527" gradientUnits="userSpaceOnUse">
<stop offset="0.16" stop-color="#21ABDB"/>
<stop offset="1" stop-color="#6327C9"/>
</linearGradient>
<linearGradient id="paint1_linear_49_5285" x1="2.98593" y1="38.4668" x2="30.347" y2="4.17263" gradientUnits="userSpaceOnUse">
<stop offset="0.5" stop-color="#21ABDB"/>
<stop offset="1" stop-color="#6327C9"/>
</linearGradient>
<clipPath id="clip0_49_5285">
<rect width="32.2581" height="26.6129" fill="white" transform="translate(8.87097 12.0968)"/>
</clipPath>
</defs>
</svg>
